<?xml version="1.0" encoding="UTF-8"?>
<svg version="1.1" xmlns="http://www.w3.org/2000/svg" width="611" height="483">
<path d="M0 0 C0.65871094 0.53496094 1.31742187 1.06992188 1.99609375 1.62109375 C5.83575448 4.77662785 9.0497167 8.22674453 12.26171875 12.015625 C13.86905866 13.8505209 15.54191926 15.51229012 17.3125 17.1875 C26.23507995 26.01049758 33.07743541 36.86405232 39.89990234 47.32421875 C41.87397697 50.33133109 43.91039129 53.29677594 45.94140625 56.265625 C47 58 47 58 48 61 C71.40174223 61.33354089 94.64208208 60.38865952 118 59 C118 60.32 118 61.64 118 63 C115.48479603 64.25760198 113.48163487 64.29316917 110.671875 64.5 C109.57254639 64.5820166 108.47321777 64.6640332 107.34057617 64.74853516 C106.15568604 64.83151855 104.9707959 64.91450195 103.75 65 C102.53739502 65.08685059 101.32479004 65.17370117 100.07543945 65.26318359 C84.39542921 66.35787813 68.72323739 67.24148317 53 67 C59.55659356 78.97141844 59.55659356 78.97141844 67.00390625 90.3984375 C68 92 68 92 68 94 C161.67779531 94.59384072 161.67779531 94.59384072 243.62109375 57.6640625 C252.20446282 48.05181668 255.66822844 35.75303278 255.28515625 23.01171875 C254.19550904 11.50325305 250.13937555 1.32436136 242 -7 C231.51041398 -15.43492484 218.82609314 -18.86356465 206 -22 C206 -23.32 206 -24.64 206 -26 C223.87942162 -25.19280264 238.73726937 -17.88694188 251 -5 C253.10456021 -2.46462393 254.62013848 0.01211087 256 3 C256.38929688 3.81210938 256.77859375 4.62421875 257.1796875 5.4609375 C262.291146 18.04570083 261.50094992 33.26531052 257.2734375 46.0078125 C255.3826733 50.45052838 252.99733848 54.23084686 250 58 C249.40316406 58.80695313 248.80632813 59.61390625 248.19140625 60.4453125 C220.64886104 92.55373418 159.93505671 94.00478942 121 97.1875 C105.3655966 98.37544816 89.67134241 98.65250133 74 99 C74.495 99.78375 74.99 100.5675 75.5 101.375 C77 104 77 104 77 106 C78.32 106.66 79.64 107.32 81 108 C81 108.66 81 109.32 81 110 C81.58265625 110.26941406 82.1653125 110.53882813 82.765625 110.81640625 C85.00594721 112.00315036 86.78545906 113.34232523 88.75 114.9375 C96.44572608 120.81319403 104.77076459 122.06637102 114.24609375 122.4296875 C115.89431274 122.50120203 117.54250528 122.57332823 119.19067383 122.64599609 C120.04803131 122.68295593 120.90538879 122.71991577 121.78872681 122.75799561 C143.95994482 123.73736596 166.76379673 124.92126558 188 132 C187.94779297 130.80503906 187.94779297 130.80503906 187.89453125 129.5859375 C187.61674009 118.71239773 187.61674009 118.71239773 191 114 C194.76977998 110.61372577 197.59619426 110.43941137 202.51953125 110.5703125 C206.54378559 111.26742743 208.25081366 113.03933779 211 116 C212.3308911 118.66178221 212.11268993 120.68739396 212.09765625 123.6640625 C212.09443359 124.78554687 212.09121094 125.90703125 212.08789062 127.0625 C212.07951172 128.238125 212.07113281 129.41375 212.0625 130.625 C212.05798828 131.80835938 212.05347656 132.99171875 212.04882812 134.2109375 C212.03701467 137.14067507 212.02054258 140.07031272 212 143 C212.92039062 143.12246094 213.84078125 143.24492187 214.7890625 143.37109375 C218.60158939 144.11782955 220.900572 145.71232695 224 148 C224.0093457 147.36497559 224.01869141 146.72995117 224.02832031 146.07568359 C224.08228733 143.174692 224.16588127 140.27526756 224.25 137.375 C224.27126953 135.87646484 224.27126953 135.87646484 224.29296875 134.34765625 C224.49345962 128.29283207 224.98268294 124.62600146 229 120 C231.96610357 117.66949005 235.23929081 117.52282795 238.96875 117.61328125 C242.68051579 118.31994435 244.41650543 120.29348188 247 123 C248.76397204 125.90542888 249.23846861 127.98221476 249.17602539 131.36279297 C249.16684586 132.218237 249.15766632 133.07368103 249.14820862 133.95504761 C249.13152634 134.87480377 249.11484406 135.79455994 249.09765625 136.7421875 C249.09358703 138.71614261 249.0917069 140.6901032 249.09179688 142.6640625 C249.08374687 145.75624058 249.06305992 148.84585617 249.00366211 151.9375 C248.79079172 164.23051726 249.08099492 173.19638413 256.76586914 183.11474609 C259.73088978 186.9439029 261.47863838 190.87814966 263.1875 195.375 C263.66920654 196.6117749 263.66920654 196.6117749 264.16064453 197.87353516 C268.07281995 208.31700493 270.65344649 219.11413998 273 230 C273.268125 231.20398438 273.53625 232.40796875 273.8125 233.6484375 C281.6000518 276.58813282 267.81365097 323.76885016 244.54296875 359.86328125 C244.03378906 360.56839844 243.52460937 361.27351563 243 362 C242.63321516 362.53111057 242.26643032 363.06222113 241.88853079 363.60942596 C238.93053044 365.78747808 235.77451826 365.41490595 232.2405386 365.38590336 C231.43809553 365.39116247 230.63565246 365.39642158 229.80889294 365.40184006 C227.09700662 365.41589079 224.3855979 365.408406 221.6736908 365.40113831 C219.71894435 365.40673875 217.76420127 365.4136393 215.80946356 365.42173427 C210.41976194 365.44015657 205.03019944 365.43967952 199.64047348 365.43615115 C193.83453264 365.43554082 188.02863718 365.45207937 182.22271729 365.46632385 C170.83975054 365.49128428 159.45683039 365.49949028 148.07383858 365.50116099 C138.82198571 365.50258487 129.57014825 365.50874108 120.31830025 365.51826286 C117.65679489 365.52094636 114.99528953 365.5236212 112.33378416 365.5262875 C111.34132829 365.52728221 111.34132829 365.52728221 110.32882281 365.52829702 C91.71081636 365.5467669 73.09281517 365.55859803 54.47479916 365.55726719 C53.77249077 365.55722045 53.07018238 365.55717372 52.34659191 365.55712556 C48.78688311 365.55687624 45.2271743 365.55657911 41.6674655 365.55627144 C40.96047815 365.55621161 40.2534908 365.55615177 39.5250796 365.55609012 C38.09537643 365.55596881 36.66567326 365.55584342 35.23597009 365.55571395 C13.0010859 365.55387642 -9.23366096 365.57637876 -31.46850586 365.61743164 C-56.44250969 365.66352277 -81.4164233 365.68932965 -106.39047235 365.68654197 C-119.61581995 365.68543034 -132.84101929 365.69381609 -146.06633186 365.72607613 C-157.32901553 365.75337194 -168.59147426 365.75993319 -179.85417665 365.73954786 C-185.60127505 365.72974127 -191.34794177 365.72962042 -197.09499931 365.7556076 C-202.35765358 365.77915956 -207.61953285 365.77495433 -212.88216787 365.74875521 C-214.78466957 365.74414044 -216.68722868 365.74963592 -218.58966268 365.76633544 C-228.85874987 365.8504971 -236.71814 365.8729188 -245 359 C-245.97710937 358.29617188 -246.95421875 357.59234375 -247.9609375 356.8671875 C-287.1740977 324.50681258 -305.70667407 275.03495319 -310.53515625 225.2265625 C-312.24480493 202.7910594 -312.29750996 179.27787233 -309 157 C-308.86045898 156.03223633 -308.72091797 155.06447266 -308.57714844 154.06738281 C-306.88357749 142.57195538 -304.96705174 131.20489148 -301.61132812 120.06494141 C-300.9023038 117.67000221 -300.24193791 115.2633231 -299.578125 112.85546875 C-292.49991437 87.78608147 -281.73791943 62.91440949 -266 42 C-265.30261719 41.03835937 -264.60523438 40.07671875 -263.88671875 39.0859375 C-258.94992332 32.35006809 -253.75117304 26.05250695 -248 20 C-247.48759766 19.44973145 -246.97519531 18.89946289 -246.44726562 18.33251953 C-232.96034558 3.91749262 -217.58318693 -7.9622813 -200 -17 C-199.38044434 -17.32661621 -198.76088867 -17.65323242 -198.12255859 -17.98974609 C-136.22407584 -50.35385411 -53.63589328 -45.47575738 0 0 Z " fill="#878787" transform="translate(318,95)"/>
<path d="M0 0 C17.87942162 0.80719736 32.73726937 8.11305812 45 21 C47.10456021 23.53537607 48.62013848 26.01211087 50 29 C50.38929688 29.81210938 50.77859375 30.62421875 51.1796875 31.4609375 C56.291146 44.04570083 55.50094992 59.26531052 51.2734375 72.0078125 C49.3826733 76.45052838 46.99733848 80.23084686 44 84 C43.40316406 84.80695313 42.80632812 85.61390625 42.19140625 86.4453125 C14.64886104 118.55373418 -46.06494329 120.00478942 -85 123.1875 C-100.6344034 124.37544816 -116.32865759 124.65250133 -132 125 C-131.505 125.78375 -131.01 126.5675 -130.5 127.375 C-129 130 -129 130 -129 132 C-127.68 132.66 -126.36 133.32 -125 134 C-125 134.66 -125 135.32 -125 136 C-124.41734375 136.26941406 -123.8346875 136.53882813 -123.234375 136.81640625 C-120.99405279 138.00315036 -119.21454094 139.34232523 -117.25 140.9375 C-109.55427392 146.81319403 -101.22923541 148.06637102 -91.75390625 148.4296875 C-90.10568726 148.50120203 -88.45749472 148.57332823 -86.80932617 148.64599609 C-85.95196869 148.68295593 -85.09461121 148.71991577 -84.21127319 148.75799561 C-62.04005518 149.73736596 -39.23620327 150.92126558 -18 158 C-18.05220703 156.80503906 -18.05220703 156.80503906 -18.10546875 155.5859375 C-18.38325991 144.71239773 -18.38325991 144.71239773 -15 140 C-11.23022002 136.61372577 -8.40380574 136.43941137 -3.48046875 136.5703125 C0.54378559 137.26742743 2.25081366 139.03933779 5 142 C6.3308911 144.66178221 6.11268993 146.68739396 6.09765625 149.6640625 C6.09443359 150.78554687 6.09121094 151.90703125 6.08789062 153.0625 C6.07951172 154.238125 6.07113281 155.41375 6.0625 156.625 C6.05798828 157.80835938 6.05347656 158.99171875 6.04882812 160.2109375 C6.03701467 163.14067507 6.02054258 166.07031272 6 169 C7.38058594 169.18369141 7.38058594 169.18369141 8.7890625 169.37109375 C12.60158939 170.11782955 14.900572 171.71232695 18 174 C18.01401855 173.04746338 18.01401855 173.04746338 18.02832031 172.07568359 C18.08228733 169.174692 18.16588127 166.27526756 18.25 163.375 C18.26417969 162.37597656 18.27835938 161.37695312 18.29296875 160.34765625 C18.49345962 154.29283207 18.98268294 150.62600146 23 146 C25.96610357 143.66949005 29.23929081 143.52282795 32.96875 143.61328125 C36.68051579 144.31994435 38.41650543 146.29348188 41 149 C42.76397204 151.90542888 43.23846861 153.98221476 43.17602539 157.36279297 C43.16684586 158.218237 43.15766632 159.07368103 43.14820862 159.95504761 C43.13152634 160.87480377 43.11484406 161.79455994 43.09765625 162.7421875 C43.09358703 164.71614261 43.0917069 166.6901032 43.09179688 168.6640625 C43.08374687 171.75624058 43.06305992 174.84585617 43.00366211 177.9375 C42.79079172 190.23051726 43.08099492 199.19638413 50.76586914 209.11474609 C53.73088978 212.9439029 55.47863838 216.87814966 57.1875 221.375 C57.5086377 222.1995166 57.82977539 223.0240332 58.16064453 223.87353516 C62.07281995 234.31700493 64.65344649 245.11413998 67 256 C67.4021875 257.80597656 67.4021875 257.80597656 67.8125 259.6484375 C73.36499273 290.26426545 67.36684335 323.3945012 56 352 C48.00155565 350.32385541 40.02629958 348.56315243 32.0625 346.73046875 C11.77885276 342.06546117 -8.498696 337.53958189 -28.93603516 333.59521484 C-32.5584827 332.8915075 -36.17474971 332.15970269 -39.79077148 331.42382812 C-98.70337944 319.46967563 -158.15649416 311.43290756 -218 306 C-216.4674096 302.79389135 -214.75883811 300.39870901 -212.375 297.75 C-211.42753906 296.69039063 -211.42753906 296.69039063 -210.4609375 295.609375 C-209.97882813 295.07828125 -209.49671875 294.5471875 -209 294 C-210.68902189 295.12601459 -212.37513431 296.25652041 -214.05078125 297.40234375 C-225.24427481 305 -225.24427481 305 -229 305 C-229 304.34 -229 303.68 -229 303 C-228.13375 302.34 -227.2675 301.68 -226.375 301 C-222.00109307 297.55294478 -219.63696524 292.81573439 -217 288 C-217.61875 288.639375 -218.2375 289.27875 -218.875 289.9375 C-221.53061079 292.57793587 -224.25144153 295.14405783 -227 297.6875 C-227.825 298.45449219 -228.65 299.22148437 -229.5 300.01171875 C-231.95375845 301.96322351 -234.04369301 303.01280463 -237 304 C-236.55269531 302.89785156 -236.10539062 301.79570312 -235.64453125 300.66015625 C-231.47651394 290.24877949 -227.97003101 279.8125553 -225 269 C-231.3612402 275.14560494 -235.83902144 281.74633376 -239 290 C-239.33 290 -239.66 290 -240 290 C-239.67 284.39 -239.34 278.78 -239 273 C-239.66 273 -240.32 273 -241 273 C-246.02616739 282.76063757 -247.89095289 292.18679066 -249 303 C-249.66 303 -250.32 303 -251 303 C-253.25809954 294.9901375 -254.57258771 287.3124321 -255 279 C-257.01485907 282.34482534 -257.24271623 284.87482429 -257.1875 288.75 C-257.18105469 289.73484375 -257.17460937 290.7196875 -257.16796875 291.734375 C-257.03782184 294.26467307 -256.81286053 296.69658082 -256.48950195 299.20410156 C-256.32796631 300.45674805 -256.16643066 301.70939453 -256 303 C-256.93642334 302.97494385 -257.87284668 302.9498877 -258.83764648 302.92407227 C-284.22426927 302.24586181 -309.61170201 301.61282099 -335 301 C-335 288.46 -335 275.92 -335 263 C-331.638125 262.896875 -328.27625 262.79375 -324.8125 262.6875 C-309.85803733 262.06183619 -295.64444897 260.24722953 -284.6875 248.9375 C-278.21693634 241.09560289 -273.91643066 231.42606245 -273.84609985 221.20733643 C-273.83749939 220.27108429 -273.82889893 219.33483215 -273.82003784 218.37020874 C-273.81577789 217.35504181 -273.81151794 216.33987488 -273.80712891 215.29394531 C-273.79486267 213.67593521 -273.79486267 213.67593521 -273.78234863 212.02523804 C-273.75755891 208.45953927 -273.74099589 204.89388011 -273.7265625 201.328125 C-273.71857698 199.49838261 -273.71857698 199.49838261 -273.71043015 197.63167572 C-273.68372782 191.17633188 -273.66434265 184.72100719 -273.64990234 178.265625 C-273.63754401 172.92885578 -273.60869225 167.59249036 -273.56787109 162.25585938 C-273.51853157 155.8050467 -273.49377978 149.35458066 -273.48667526 142.90358734 C-273.47996795 140.44924891 -273.46475963 137.99491806 -273.44078445 135.54068756 C-273.40909886 132.1012607 -273.40910191 128.66316785 -273.41650391 125.22363281 C-273.40009857 124.21656281 -273.38369324 123.2094928 -273.36679077 122.17190552 C-273.42649776 115.37087439 -274.9188265 110.50217874 -279 105 C-283.0905094 101.67892726 -287.55025839 100.16913652 -292.75 99.5625 C-298.05337579 100.27641597 -302.71824532 101.73234511 -307 105 C-310.54795794 109.90523044 -312.11176496 114.51179849 -312.15148926 120.49845886 C-312.16400475 121.8423896 -312.16400475 121.8423896 -312.17677307 123.21347046 C-312.18095749 124.18869659 -312.18514191 125.16392273 -312.18945312 126.16870117 C-312.20189308 127.71798561 -312.20189308 127.71798561 -312.21458435 129.29856873 C-312.23197492 131.54007122 -312.24714445 133.78159179 -312.26036072 136.02312279 C-312.28138008 139.56488685 -312.30840125 143.10655951 -312.33703613 146.64826965 C-312.40688293 155.44110581 -312.46637562 164.23400655 -312.52606201 173.0269165 C-312.5768964 180.46117902 -312.63167775 187.89539137 -312.69187927 195.32958412 C-312.71854841 198.8290167 -312.73930216 202.32845373 -312.7598877 205.82792664 C-312.7764814 207.95844753 -312.79335241 210.08896629 -312.81054688 212.21948242 C-312.81473129 213.20078125 -312.81891571 214.18208008 -312.82322693 215.19311523 C-312.83574242 216.52435677 -312.83574242 216.52435677 -312.84851074 217.88249207 C-312.85366447 218.65805545 -312.85881821 219.43361883 -312.86412811 220.23268414 C-313 222 -313 222 -314 223 C-320.93 223 -327.86 223 -335 223 C-335 175.48 -335 127.96 -335 79 C-319.70431211 80.17659138 -319.70431211 80.17659138 -312.875 80.9375 C-312.16730469 81.01162109 -311.45960938 81.08574219 -310.73046875 81.16210938 C-306.76322562 81.6001443 -302.87796918 82.20038096 -298.9609375 82.96875 C-291.61274032 84.34389983 -284.18916374 84.91787466 -276.75 85.5625 C-274.61323326 85.75113795 -272.47661286 85.94124815 -270.34014893 86.13328552 C-268.41289406 86.30600848 -266.48526571 86.47454947 -264.55761719 86.64282227 C-262.25181332 86.87432042 -259.95030764 87.1563649 -257.65820312 87.49780273 C-253.16881037 88.11410552 -248.69250649 88.42958755 -244.171875 88.71875 C-242.7277977 88.81261238 -242.7277977 88.81261238 -241.25454712 88.90837097 C-238.08666645 89.11078446 -234.91843311 89.30643385 -231.75 89.5 C-230.66583801 89.56692047 -229.58167603 89.63384094 -228.46466064 89.70278931 C-203.32480286 91.22997693 -178.18036992 91.7138235 -153 92 C-152.62343262 92.77778809 -152.24686523 93.55557617 -151.85888672 94.35693359 C-148.91475151 100.35527379 -145.87785793 106.09783169 -142.125 111.625 C-138 117.74639423 -138 117.74639423 -138 120 C-44.32220469 120.59384072 -44.32220469 120.59384072 37.62109375 83.6640625 C46.20446282 74.05181668 49.66822844 61.75303278 49.28515625 49.01171875 C48.19550904 37.50325305 44.13937555 27.32436136 36 19 C25.51041398 10.56507516 12.82609314 7.13643535 0 4 C0 2.68 0 1.36 0 0 Z " fill="#F5F5F5" transform="translate(524,69)"/>
<path d="M0 0 C0.65871094 0.53496094 1.31742187 1.06992188 1.99609375 1.62109375 C5.83575448 4.77662785 9.0497167 8.22674453 12.26171875 12.015625 C13.86905866 13.8505209 15.54191926 15.51229012 17.3125 17.1875 C26.23776029 26.01314801 33.07820341 36.86832227 39.89990234 47.33300781 C41.85027846 50.28843793 43.89378469 53.18159993 45.94140625 56.0703125 C47.19135976 58.34882555 47.53616932 60.45610927 48 63 C17.97387348 63.20381143 -11.80724641 62.38407982 -41.75 60.0625 C-43.42201477 59.93445984 -43.42201477 59.93445984 -45.12780762 59.80383301 C-48.35141626 59.55443595 -51.5742149 59.29650035 -54.796875 59.03515625 C-55.74892822 58.9611409 -56.70098145 58.88712555 -57.68188477 58.81086731 C-63.62271131 58.31437557 -69.44067438 57.47791609 -75.31332397 56.45576477 C-78.38726747 55.93430437 -81.45602032 55.55927463 -84.55859375 55.25390625 C-85.6770166 55.14030762 -86.79543945 55.02670898 -87.94775391 54.90966797 C-89.09937012 54.79510254 -90.25098633 54.68053711 -91.4375 54.5625 C-100.35518561 53.64088294 -109.248832 52.63877601 -118.125 51.375 C-119.0008374 51.2519751 -119.8766748 51.1289502 -120.77905273 51.00219727 C-126.74150772 50.12924614 -126.74150772 50.12924614 -129 49 C-129.50423397 47.28910207 -129.92930565 45.55450623 -130.3125 43.8125 C-132.05110827 37.14351005 -134.0647383 33.76115702 -140.125 30.125 C-145.47300526 28.17496315 -151.71809741 27.87581237 -157.12109375 29.7265625 C-162.78232157 32.72153464 -166.03586042 37.02318846 -168 43 C-168.32574627 46.37454194 -168.32574627 46.37454194 -168.31884766 50.08520508 C-168.32889328 50.77843872 -168.3389389 51.47167236 -168.34928894 52.18591309 C-168.38003363 54.46377783 -168.39713145 56.74152551 -168.4140625 59.01953125 C-168.4327812 60.6042328 -168.45235514 62.18892446 -168.4727478 63.77360535 C-168.524001 67.93441934 -168.56366305 72.09526562 -168.60089111 76.25622559 C-168.64097358 80.50618432 -168.69204654 84.75600952 -168.7421875 89.00585938 C-168.83886609 97.33714825 -168.92329653 105.66850339 -169 114 C-172.97915159 114.02886984 -176.95827653 114.04675406 -180.9375 114.0625 C-182.07380859 114.07087891 -183.21011719 114.07925781 -184.38085938 114.08789062 C-185.46044922 114.09111328 -186.54003906 114.09433594 -187.65234375 114.09765625 C-189.15269165 114.10551147 -189.15269165 114.10551147 -190.68334961 114.11352539 C-193 114 -193 114 -194 113 C-194.08506554 111.17872984 -194.10818703 109.35450362 -194.10546875 107.53125 C-194.12029297 106.40203125 -194.13511719 105.2728125 -194.15039062 104.109375 C-194.17480768 101.73449481 -194.18052928 99.35933636 -194.16601562 96.984375 C-194.31293649 89.11297816 -195.58704158 83.874178 -201 78 C-205.10549949 74.38298579 -209.37676239 73.40085968 -214.73046875 73.68359375 C-220.05723304 74.42622354 -224.28714161 75.79362846 -227.875 79.9375 C-232.44890742 86.52930776 -232.37243023 91.99948733 -232.37060547 99.83227539 C-232.37492198 101.90012607 -232.41109282 103.96573799 -232.44921875 106.03320312 C-232.56708221 119.8724499 -229.70895657 131.10195582 -219.9296875 141.12109375 C-205.25014127 155.05899043 -189.59958469 153.26430055 -169 154 C-169 194.59 -169 235.18 -169 277 C-202.66071429 279.32142857 -202.66071429 279.32142857 -214 280 C-213.34 278.68 -212.68 277.36 -212 276 C-212.33 276.33 -212.66 276.66 -213 277 C-216.08436668 279.99365002 -217.43769515 280.96312755 -221.8125 281.25 C-222.864375 281.1675 -223.91625 281.085 -225 281 C-224 278 -223 275 -222 272 C-222.43570313 272.54269531 -222.87140625 273.08539063 -223.3203125 273.64453125 C-226.83951068 277.87213945 -229.69214504 281.06987092 -235 283 C-235.99 283 -236.98 283 -238 283 C-237.76216797 282.21302734 -237.76216797 282.21302734 -237.51953125 281.41015625 C-237.0110977 279.72193215 -236.5048482 278.03304973 -236 276.34375 C-235.45776176 274.53064088 -234.91470016 272.71777336 -234.3671875 270.90625 C-233.67840704 268.62614918 -232.99516813 266.3444375 -232.3125 264.0625 C-232.08602783 263.31685791 -231.85955566 262.57121582 -231.6262207 261.80297852 C-230.72367053 258.77133563 -230 256.18126011 -230 253 C-236.28326216 259.15313543 -239.64343211 265.93440097 -243 274 C-243.33 274 -243.66 274 -244 274 C-243.67 268.39 -243.34 262.78 -243 257 C-243.66 257 -244.32 257 -245 257 C-249.82229979 266.34320585 -251.84446078 275.58494255 -253 286 C-253.66 286 -254.32 286 -255 286 C-257.40152224 278.32721195 -258.59378936 271.02616194 -259 263 C-261.43018352 266.64527527 -261.23861339 268.41930211 -261.1875 272.75 C-261.17783203 274.53664063 -261.17783203 274.53664063 -261.16796875 276.359375 C-261.0016739 279.9637192 -260.57063371 283.43924564 -260 287 C-263.9990211 287.81736749 -267.99937762 288.62800952 -272 289.4375 C-273.68802734 289.78264648 -273.68802734 289.78264648 -275.41015625 290.13476562 C-281.26481144 291.31596799 -287.06016035 292.36670827 -293 293 C-316.18403666 258.18975027 -314.90525694 196.8957279 -309 157 C-308.86045898 156.03223633 -308.72091797 155.06447266 -308.57714844 154.06738281 C-306.88357749 142.57195538 -304.96705174 131.20489148 -301.61132812 120.06494141 C-300.9023038 117.67000221 -300.24193791 115.2633231 -299.578125 112.85546875 C-292.49991437 87.78608147 -281.73791943 62.91440949 -266 42 C-265.30261719 41.03835937 -264.60523438 40.07671875 -263.88671875 39.0859375 C-258.94992332 32.35006809 -253.75117304 26.05250695 -248 20 C-247.48759766 19.44973145 -246.97519531 18.89946289 -246.44726562 18.33251953 C-232.96034558 3.91749262 -217.58318693 -7.9622813 -200 -17 C-199.38044434 -17.32661621 -198.76088867 -17.65323242 -198.12255859 -17.98974609 C-136.22407584 -50.35385411 -53.63589328 -45.47575738 0 0 Z " fill="#F3F3F3" transform="translate(318,95)"/>
<path d="M0 0 C4.36130616 2.55755608 7.42689751 5.98667169 9.6875 10.5 C10.39400849 13.5178674 10.67316857 16.40441031 10.6875 19.5 C11.57566406 19.60957031 12.46382813 19.71914062 13.37890625 19.83203125 C20.64790168 20.73423754 27.91357118 21.65687934 35.17578125 22.61230469 C51.84363984 24.8034106 68.48729517 26.75491244 85.23779297 28.19824219 C87.71657151 28.41506953 90.19457407 28.63669895 92.67236328 28.86425781 C114.02069139 30.82298359 135.2445238 32.17015035 156.6875 32.5 C157.87359863 32.52191406 159.05969727 32.54382813 160.28173828 32.56640625 C192.75789516 33.10475945 225.26451807 31.17073137 257.6875 29.5 C257.6875 30.82 257.6875 32.14 257.6875 33.5 C255.17229603 34.75760198 253.16913487 34.79316917 250.359375 35 C249.24691406 35.0825 248.13445312 35.165 246.98828125 35.25 C245.81652344 35.3325 244.64476562 35.415 243.4375 35.5 C242.34308594 35.5825 241.24867188 35.665 240.12109375 35.75 C236.31133127 36.02613228 232.50021762 36.26935119 228.6875 36.5 C227.92570435 36.54789673 227.16390869 36.59579346 226.37902832 36.6451416 C210.25681622 37.62813448 194.17700544 37.55747583 178.03276443 37.28522491 C175.90800253 37.2495041 173.78321433 37.21583643 171.65841675 37.18231201 C137.14807844 36.62360968 102.56698119 35.38695296 68.32373047 30.83203125 C63.85058265 30.26864164 59.3632893 29.85954072 54.875 29.4375 C47.42176779 28.71871215 40.08476394 27.68635365 32.6875 26.5 C25.4275 25.51 18.1675 24.52 10.6875 23.5 C10.6875 71.02 10.6875 118.54 10.6875 167.5 C17.6175 167.17 24.5475 166.84 31.6875 166.5 C31.70208252 163.33083984 31.71666504 160.16167969 31.73168945 156.89648438 C31.78207008 146.41504044 31.84867151 135.93374453 31.92321491 125.45244598 C31.96790526 119.09884413 32.00716461 112.7453062 32.03393555 106.39160156 C32.05998143 100.25770502 32.10039363 94.12405465 32.15068626 87.99031067 C32.16734615 85.65244107 32.17886588 83.31452889 32.18511391 80.97660828 C32.19476422 77.69703482 32.22283596 74.41808994 32.25512695 71.13867188 C32.25297432 69.69504776 32.25297432 69.69504776 32.2507782 68.22225952 C32.3500721 61.07190226 33.28675406 55.27009147 38.125 49.6875 C38.970625 48.965625 39.81625 48.24375 40.6875 47.5 C41.3475 46.9225 42.0075 46.345 42.6875 45.75 C45.10380074 44.23981204 46.8555087 43.82930131 49.6875 43.5 C50.739375 43.37625 51.79125 43.2525 52.875 43.125 C58.16082318 43.64491703 62.55415873 45.11410994 66.6875 48.5 C72.02051049 55.43325752 73.56234471 61.13042298 73.41625977 69.7578125 C73.4219548 70.83560974 73.42764984 71.91340698 73.43351746 73.02386475 C73.4445591 76.55825993 73.41264833 80.09077148 73.37890625 83.625 C73.37532537 86.09781681 73.37397252 88.57063775 73.3747406 91.04345703 C73.37005998 96.21477985 73.34530105 101.38547555 73.30493164 106.55664062 C73.25396369 113.1672145 73.2424896 119.77710053 73.24476719 126.3878479 C73.24394927 131.49070739 73.22746059 136.59341817 73.20576286 141.69622803 C73.19625344 144.13294349 73.19031254 146.5696757 73.18808174 149.00640869 C73.18153661 152.41862348 73.15518882 155.83012711 73.12329102 159.2421875 C73.12533035 160.73561676 73.12533035 160.73561676 73.12741089 162.25921631 C72.96260785 174.38835706 68.84144909 186.13646962 60.625 195.25 C45.92217324 208.71947705 29.30788388 207.72570162 10.6875 207.5 C10.6875 220.04 10.6875 232.58 10.6875 245.5 C-2.55939933 247.15586242 -15.96902418 247.08301638 -29.3125 247.5 C-29.3125 206.91 -29.3125 166.32 -29.3125 124.5 C-38.5525 124.5 -47.7925 124.5 -57.3125 124.5 C-70.85060953 119.98729682 -82.35460019 114.52646397 -89.1875 101.5 C-93.33872125 92.9072623 -93.71266494 84.47459715 -93.73803711 75.09130859 C-93.74997882 73.00370342 -93.79931164 70.91901924 -93.84960938 68.83203125 C-93.94141822 61.22240086 -93.63014432 55.30483206 -88.3125 49.5 C-83.7926127 45.09600724 -79.16687378 43.45852548 -72.9375 43.0625 C-67.62474064 43.22322213 -64.28498377 45.08366396 -60.3125 48.5 C-53.94600795 55.39366578 -53.41736166 61.96500314 -53.4375 71.0625 C-53.416875 72.26197266 -53.39625 73.46144531 -53.375 74.69726562 C-53.32824389 77.63121184 -53.3167681 80.56568435 -53.3125 83.5 C-45.3925 83.83 -37.4725 84.16 -29.3125 84.5 C-29.33344727 82.39109375 -29.35439453 80.2821875 -29.37597656 78.109375 C-29.44242751 71.12058108 -29.48650737 64.13177275 -29.51974869 57.14274597 C-29.54057209 52.90765593 -29.56879279 48.67289116 -29.61425781 44.43798828 C-29.65790424 40.34660674 -29.68167653 36.25553693 -29.69200897 32.16394043 C-29.6993668 30.60749407 -29.71373476 29.05106365 -29.73542023 27.49475098 C-29.85989474 18.18642972 -29.95556999 10.76214599 -23.49609375 3.44140625 C-22.91988281 2.98636719 -22.34367187 2.53132813 -21.75 2.0625 C-21.17121094 1.58941406 -20.59242188 1.11632812 -19.99609375 0.62890625 C-14.46489805 -3.07994655 -5.91957391 -2.59409899 0 0 Z " fill="#9D9D9B" transform="translate(178.3125,124.5)"/>
<path d="M0 0 C3.12001504 1.68818449 5.39047471 3.78094941 7 7 C7.084915 8.8863912 7.107193 10.77578515 7.09765625 12.6640625 C7.09443359 13.78554687 7.09121094 14.90703125 7.08789062 16.0625 C7.07951172 17.238125 7.07113281 18.41375 7.0625 19.625 C7.05798828 20.80835938 7.05347656 21.99171875 7.04882812 23.2109375 C7.03701467 26.14067507 7.02054258 29.07031272 7 32 C7.92039062 32.12246094 8.84078125 32.24492187 9.7890625 32.37109375 C13.60158939 33.11782955 15.900572 34.71232695 19 37 C19.01401855 36.04746338 19.01401855 36.04746338 19.02832031 35.07568359 C19.08228733 32.174692 19.16588127 29.27526756 19.25 26.375 C19.26417969 25.37597656 19.27835938 24.37695312 19.29296875 23.34765625 C19.49345962 17.29283207 19.98268294 13.62600146 24 9 C26.96610357 6.66949005 30.23929081 6.52282795 33.96875 6.61328125 C37.68051579 7.31994435 39.41650543 9.29348188 42 12 C43.76397204 14.90542888 44.23846861 16.98221476 44.17602539 20.36279297 C44.16684586 21.218237 44.15766632 22.07368103 44.14820862 22.95504761 C44.13152634 23.87480377 44.11484406 24.79455994 44.09765625 25.7421875 C44.09358703 27.71614261 44.0917069 29.6901032 44.09179688 31.6640625 C44.08374687 34.75624058 44.06305992 37.84585617 44.00366211 40.9375 C43.79079172 53.23051726 44.08099492 62.19638413 51.76586914 72.11474609 C54.73088978 75.9439029 56.47863838 79.87814966 58.1875 84.375 C58.5086377 85.1995166 58.82977539 86.0240332 59.16064453 86.87353516 C63.07281995 97.31700493 65.65344649 108.11413998 68 119 C68.268125 120.20398438 68.53625 121.40796875 68.8125 122.6484375 C74.36499273 153.26426545 68.36684335 186.3945012 57 215 C49.00155565 213.32385541 41.02629958 211.56315243 33.0625 209.73046875 C12.77885276 205.06546117 -7.498696 200.53958189 -27.93603516 196.59521484 C-31.5584827 195.8915075 -35.17474971 195.15970269 -38.79077148 194.42382812 C-91.19983334 183.78933172 -144.63153772 174.87929969 -198 171 C-198 170.67 -198 170.34 -198 170 C-197.41323486 169.9498877 -196.82646973 169.89977539 -196.22192383 169.84814453 C-193.41869343 169.60812422 -190.61559108 169.36664195 -187.8125 169.125 C-186.23408325 168.98964844 -186.23408325 168.98964844 -184.6237793 168.8515625 C-179.76625804 168.43104214 -174.91151469 168.00229424 -170.0625 167.4921875 C-144.81589364 164.85113254 -119.38079824 163.55210356 -94 164 C-94.32742188 163.25363281 -94.65484375 162.50726563 -94.9921875 161.73828125 C-96.22804287 158.38039514 -96.13921359 155.54994652 -96 152 C-95.34 152 -94.68 152 -94 152 C-92.66666667 156 -91.33333333 160 -90 164 C-89.34 164 -88.68 164 -88 164 C-88.33 163.34 -88.66 162.68 -89 162 C-89.12240135 160.23229673 -89.17551153 158.45939538 -89.1875 156.6875 C-89.20167969 155.74261719 -89.21585937 154.79773438 -89.23046875 153.82421875 C-88.98824335 150.85593118 -88.24026607 148.69132835 -87 146 C-86.67 146 -86.34 146 -86 146 C-85.67 149.3 -85.34 152.6 -85 156 C-84.34 156 -83.68 156 -83 156 C-83.061875 154.989375 -83.12375 153.97875 -83.1875 152.9375 C-82.97357173 148.44500628 -81.95386468 145.98914039 -80 142 C-79.67 142 -79.34 142 -79 142 C-79 148.93 -79 155.86 -79 163 C-78.05125 161.55625 -77.1025 160.1125 -76.125 158.625 C-74.51483197 156.17474431 -73.07571643 154.07571643 -71 152 C-71.57634139 156.75481646 -73.55068521 159.97048212 -76 164 C-74.8944811 163.06409496 -73.79064547 162.12620142 -72.6875 161.1875 C-72.07261719 160.66542969 -71.45773437 160.14335937 -70.82421875 159.60546875 C-69.14575321 158.12827531 -67.56117966 156.59960869 -66 155 C-67.33693388 158.59943736 -68.99480605 161.73125918 -71 165 C-70.03400879 164.99476318 -69.06801758 164.98952637 -68.07275391 164.98413086 C-35.71886173 164.8240496 -35.71886173 164.8240496 -24.9375 165.4375 C-24.23254395 165.47673584 -23.52758789 165.51597168 -22.80126953 165.55639648 C-18.28173596 165.85913202 -18.28173596 165.85913202 -16 167 C-16 150.17 -16 133.34 -16 116 C-22.93 116 -29.86 116 -37 116 C-45.92667949 110.42082532 -50.70306602 106.80859242 -54 97 C-54.52133481 93.68845825 -54.56289574 90.45713192 -54.53125 87.109375 C-54.5350769 86.20173401 -54.53890381 85.29409302 -54.54284668 84.35894775 C-54.54554956 82.45640949 -54.53830318 80.55383303 -54.52148438 78.65136719 C-54.4999504 75.74330221 -54.52139209 72.83767932 -54.546875 69.9296875 C-54.54423338 68.07291124 -54.53911185 66.21613649 -54.53125 64.359375 C-54.53934692 63.49471619 -54.54744385 62.63005737 -54.55578613 61.73919678 C-54.49212076 57.64193323 -54.33750522 55.53061187 -52.09008789 51.99731445 C-49.40602944 49.43239421 -47.5532383 48.10836546 -43.81640625 47.84765625 C-39.54362843 48.2549401 -37.4592279 48.63644458 -34 51.375 C-30.65018946 55.77162633 -30.79858257 59.85648304 -30.68359375 65.16796875 C-30.66281265 65.96278152 -30.64203156 66.7575943 -30.62062073 67.57649231 C-30.55527913 70.11340763 -30.49631192 72.65042573 -30.4375 75.1875 C-30.39430014 76.90821372 -30.35068537 78.62891708 -30.30664062 80.34960938 C-30.19961352 84.56630113 -30.09830276 88.7830962 -30 93 C-23.07 93.495 -23.07 93.495 -16 94 C-16.01918991 92.94843719 -16.03837982 91.89687439 -16.05815125 90.81344604 C-16.23709974 80.89685826 -16.39977845 70.98011881 -16.54658794 61.06300163 C-16.62258322 55.96467358 -16.70428057 50.86657065 -16.79907227 45.76855469 C-16.89036413 40.84742418 -16.96659518 35.92626838 -17.03244972 31.00473404 C-17.06019161 29.12841231 -17.09333246 27.25216228 -17.13199425 25.37603378 C-17.18527813 22.74530513 -17.21924683 20.11497454 -17.2487793 17.48388672 C-17.27898415 16.32402504 -17.27898415 16.32402504 -17.30979919 15.14073181 C-17.33837647 10.32173695 -16.53919209 7.09692212 -14 3 C-9.91530778 -0.99994756 -5.42662026 -0.94004445 0 0 Z " fill="#C5C5C5" transform="translate(523,206)"/>
<path d="M0 0 C5.70363026 1.90121009 8.33003463 8.84915691 11 14 C17.76548723 28.03862103 21.72726521 42.81750675 25 58 C25.268125 59.20398438 25.53625 60.40796875 25.8125 61.6484375 C28.85403685 78.41913374 28.25698542 97.31904532 25 114 C14.01146014 113.43969874 3.16090193 112.40344548 -7.75 111 C-9.87266513 110.72972731 -11.99550133 110.4610117 -14.11871338 110.19506836 C-16.03364551 109.95484084 -17.94799995 109.71002065 -19.86230469 109.46484375 C-25.22988586 108.86183015 -30.61731023 108.44855748 -36 108 C-36 83.25 -36 58.5 -36 33 C-31.05 32.67 -26.1 32.34 -21 32 C-12.68522775 29.60807921 -7.37148597 26.30596825 -2.98046875 18.90234375 C-0.91975565 14.90406773 -0.7223958 11.24873464 -0.4375 6.8125 C-0.35371094 5.54019531 -0.26992188 4.26789063 -0.18359375 2.95703125 C-0.09271484 1.49330078 -0.09271484 1.49330078 0 0 Z " fill="#F0F0F0" transform="translate(566,267)"/>
<path d="M0 0 C17.87942162 0.80719736 32.73726937 8.11305812 45 21 C47.10456021 23.53537607 48.62013848 26.01211087 50 29 C50.38929688 29.81210938 50.77859375 30.62421875 51.1796875 31.4609375 C56.291146 44.04570083 55.50094992 59.26531052 51.2734375 72.0078125 C49.3826733 76.45052838 46.99733848 80.23084686 44 84 C43.40316406 84.80695313 42.80632812 85.61390625 42.19140625 86.4453125 C14.6650612 118.53484844 -46.02127405 120.00714324 -84.9375 123.1875 C-113.98022866 125.3185751 -142.92010013 125.03513083 -172 124 C-172 123.01 -172 122.02 -172 121 C-171.25451401 120.97938507 -170.50902802 120.95877014 -169.74095154 120.93753052 C-162.55424145 120.73776991 -155.36772133 120.53236673 -148.1813345 120.32132149 C-144.49083714 120.2131218 -140.80031019 120.10676716 -137.10961914 120.00537109 C-110.75759889 119.27886177 -84.38519332 118.28932755 -58.1875 115.1875 C-57.47149628 115.10385193 -56.75549255 115.02020386 -56.01779175 114.934021 C-24.22059445 111.18743794 17.16038032 106.00918631 40 81 C47.9929152 69.79309152 50.68733224 56.39867541 48.49609375 42.89453125 C46.0916577 32.05395955 41.15586483 22.48170855 31.9375 15.9375 C22.07623083 9.71531533 11.20518375 6.74006542 0 4 C0 2.68 0 1.36 0 0 Z " fill="#C3C3C3" transform="translate(524,69)"/>
<path d="M0 0 C0.33 0 0.66 0 1 0 C1 1.65 1 3.3 1 5 C2.33224609 5.16435547 2.33224609 5.16435547 3.69140625 5.33203125 C10.96040168 6.23423754 18.22607118 7.15687934 25.48828125 8.11230469 C42.15613984 10.3034106 58.79979517 12.25491244 75.55029297 13.69824219 C78.02907151 13.91506953 80.50707407 14.13669895 82.98486328 14.36425781 C104.33319139 16.32298359 125.5570238 17.67015035 147 18 C148.18609863 18.02191406 149.37219727 18.04382813 150.59423828 18.06640625 C183.07039516 18.60475945 215.57701807 16.67073137 248 15 C248 16.32 248 17.64 248 19 C245.48479603 20.25760198 243.48163487 20.29316917 240.671875 20.5 C239.55941406 20.5825 238.44695312 20.665 237.30078125 20.75 C235.54314453 20.87375 235.54314453 20.87375 233.75 21 C232.65558594 21.0825 231.56117188 21.165 230.43359375 21.25 C226.62383127 21.52613228 222.81271762 21.76935119 219 22 C218.23820435 22.04789673 217.47640869 22.09579346 216.69152832 22.1451416 C200.56931622 23.12813448 184.48950544 23.05747583 168.34526443 22.78522491 C166.22050253 22.7495041 164.09571433 22.71583643 161.97091675 22.68231201 C127.46057844 22.12360968 92.87948119 20.88695296 58.63623047 16.33203125 C54.16308265 15.76864164 49.6757893 15.35954072 45.1875 14.9375 C37.73426779 14.21871215 30.39726394 13.18635365 23 12 C15.74 11.01 8.48 10.02 1 9 C1 56.52 1 104.04 1 153 C0.67 153 0.34 153 0 153 C0 102.51 0 52.02 0 0 Z " fill="#C5C5C5" transform="translate(188,139)"/>
<path d="M0 0 C5.61 0 11.22 0 17 0 C17 16.83 17 33.66 17 51 C-3 50 -3 50 -7 49 C-5.99762566 45.90388114 -4.94842065 42.87449026 -3.7109375 39.86328125 C1.20690015 26.79218644 0.45391818 13.79911253 0 0 Z " fill="#ECECEC" transform="translate(490,322)"/>
<path d="M0 0 C4.54185926 0.38930222 7.54953903 2.07294002 11 5 C11.62225545 7.87817714 11.84088798 9.94980596 11.8046875 12.828125 C11.81839386 13.57713074 11.83210022 14.32613647 11.84622192 15.09783936 C11.88351633 17.48250424 11.8798083 19.86508496 11.875 22.25 C11.89312753 23.86982421 11.91393042 25.48962084 11.9375 27.109375 C11.98934434 31.07326578 12.00443141 35.03578878 12 39 C7.71 39 3.42 39 -1 39 C-1.02464849 33.60653012 -1.04283531 28.21309275 -1.05493164 22.81958008 C-1.05997231 20.98331125 -1.06680477 19.14704646 -1.07543945 17.31079102 C-1.08751672 14.67723599 -1.09323081 12.04373384 -1.09765625 9.41015625 C-1.10281754 8.58411392 -1.10797882 7.75807159 -1.11329651 6.90699768 C-1.11349205 4.93763632 -1.06204152 2.96838386 -1 1 C-0.67 0.67 -0.34 0.34 0 0 Z " fill="#F6F6F6" transform="translate(531,238)"/>
<path d="M0 0 C0.825 0.20447754 1.65 0.40895508 2.5 0.61962891 C7.02223133 1.84966839 9.99538654 2.92891549 13 6.75 C8.62442994 9.214324 4.92226735 9.0947031 0 9.0625 C-0.8463501 9.05903564 -1.6927002 9.05557129 -2.56469727 9.05200195 C-10.95561124 8.90739989 -19.32830769 8.27620453 -26 2.75 C-25.6875 0.8125 -25.6875 0.8125 -25 -1.25 C-16.70730416 -4.01423195 -8.23342093 -2.10385241 0 0 Z " fill="#838383" transform="translate(481,63.25)"/>
<path d="M0 0 C2.14694991 4.29389983 1.18585465 10.03328579 1.18530273 14.8034668 C1.18748798 16.92582281 1.2056452 19.04765795 1.22460938 21.16992188 C1.22754367 22.51822739 1.22952823 23.86653537 1.23046875 25.21484375 C1.23457764 26.44323975 1.23868652 27.67163574 1.24291992 28.93725586 C1 32 1 32 -1 35 C-4.875 34.125 -4.875 34.125 -6 33 C-6.0883967 30.6243148 -6.11530305 28.27791326 -6.09765625 25.90234375 C-6.0962413 25.19348526 -6.09482635 24.48462677 -6.09336853 23.75428772 C-6.08775443 21.48198288 -6.07519963 19.20977525 -6.0625 16.9375 C-6.05748681 15.40039204 -6.05292359 13.86328255 -6.04882812 12.32617188 C-6.03778042 8.55074358 -6.02050641 4.77538829 -6 1 C-4 0 -4 0 0 0 Z " fill="#878785" transform="translate(231,233)"/>
<path d="M0 0 C1.98 0 3.96 0 6 0 C6 11.22 6 22.44 6 34 C4.35 34 2.7 34 1 34 C0 33 0 33 -0.11352539 29.85717773 C-0.11336633 28.46597303 -0.10767506 27.07476239 -0.09765625 25.68359375 C-0.0962413 24.95253922 -0.09482635 24.22148468 -0.09336853 23.46827698 C-0.08775408 21.12464368 -0.07519922 18.78110461 -0.0625 16.4375 C-0.05748686 14.85221492 -0.05292363 13.26692834 -0.04882812 11.68164062 C-0.03777997 7.7877239 -0.02050572 3.89387795 0 0 Z " fill="#878685" transform="translate(172,170)"/>
<path d="M0 0 C1.98 0 3.96 0 6 0 C6 10.89 6 21.78 6 33 C3.525 33.495 3.525 33.495 1 34 C0 33 0 33 -0.11352539 29.85717773 C-0.11336633 28.46597303 -0.10767506 27.07476239 -0.09765625 25.68359375 C-0.0962413 24.95253922 -0.09482635 24.22148468 -0.09336853 23.46827698 C-0.08775408 21.12464368 -0.07519922 18.78110461 -0.0625 16.4375 C-0.05748686 14.85221492 -0.05292363 13.26692834 -0.04882812 11.68164062 C-0.03777997 7.7877239 -0.02050572 3.89387795 0 0 Z " fill="#868684" transform="translate(162,268)"/>
<path d="M0 0 C1.65 0.33 3.3 0.66 5 1 C5 11.89 5 22.78 5 34 C3.35 34 1.7 34 0 34 C-1.67673649 32.32326351 -1.12787817 30.27144924 -1.13894653 28.03344727 C-1.1369223 27.34178467 -1.13489807 26.65012207 -1.1328125 25.9375 C-1.13376923 25.23101318 -1.13472595 24.52452637 -1.13571167 23.79663086 C-1.13639333 22.30029207 -1.13454005 20.80395033 -1.13037109 19.30761719 C-1.12502257 17.00969843 -1.13031651 14.71197514 -1.13671875 12.4140625 C-1.13605797 10.96354123 -1.1347768 9.51302009 -1.1328125 8.0625 C-1.13483673 7.3708374 -1.13686096 6.6791748 -1.13894653 5.96655273 C-1.11495224 1.11495224 -1.11495224 1.11495224 0 0 Z " fill="#878684" transform="translate(110,187)"/>
<path d="M0 0 C6.91457173 -0.45160483 13.23724713 1.23624246 19.9375 2.8125 C22.34849172 3.36532023 24.75995028 3.91610846 27.171875 4.46484375 C28.33783203 4.73022949 29.50378906 4.99561523 30.70507812 5.26904297 C37.10448421 6.68870967 43.54324369 7.8727868 50 9 C49.67 9.99 49.34 10.98 49 12 C43.05413064 12.34303092 38.20903823 11.40106031 32.4765625 9.85546875 C28.48592412 8.87350268 24.48896951 8.17517035 20.4375 7.5 C5.34934752 4.92512103 5.34934752 4.92512103 1 3 C0.67 2.01 0.34 1.02 0 0 Z " fill="#C8C8C8" transform="translate(100,128)"/>
<path d="M0 0 C11.55 0.33 23.1 0.66 35 1 C35 2.32 35 3.64 35 5 C23.28610535 5.12330415 11.68566021 4.8283506 0 4 C0 2.68 0 1.36 0 0 Z " fill="#CBCBCB" transform="translate(290,188)"/>
<path d="M0 0 C0 1.32 0 2.64 0 4 C-5.71735105 6.45029331 -9.79029227 7.33266291 -16 7 C-16 6.01 -16 5.02 -16 4 C-10.4174808 0.67424388 -6.50313209 -0.46450943 0 0 Z " fill="#C3C3C3" transform="translate(516,156)"/>
<path d="M0 0 C1.32 0 2.64 0 4 0 C4 6.6 4 13.2 4 20 C2.68 20 1.36 20 0 20 C0 13.4 0 6.8 0 0 Z " fill="#B5B5B4" transform="translate(476,273)"/>
<path d="M0 0 C1.32 0 2.64 0 4 0 C4 6.27 4 12.54 4 19 C2.68 19.33 1.36 19.66 0 20 C0 13.4 0 6.8 0 0 Z " fill="#B4B4B3" transform="translate(555,234)"/>
<path d="M0 0 C6.82760637 0.43349882 11.91348109 1.91170288 18 5 C18.66 5.33 19.32 5.66 20 6 C20 6.99 20 7.98 20 9 C12.63536666 8.72208931 7.12140094 6.05583155 1 2 C0.67 1.34 0.34 0.68 0 0 Z " fill="#C8C8C8" transform="translate(425,230)"/>
<path d="M0 0 C-0.98967254 2.63187642 -1.53975511 3.77073303 -4.1015625 5.046875 C-9.59540933 6.57766824 -14.29679332 7.31684482 -20 7 C-15.00281022 1.33759989 -7.31216581 -0.63584051 0 0 Z " fill="#888888" transform="translate(302,121)"/>
<path d="M0 0 C1.32 0 2.64 0 4 0 C4 4.95 4 9.9 4 15 C2.35 15 0.7 15 -1 15 C-1.02685412 12.68756208 -1.04632841 10.3750373 -1.0625 8.0625 C-1.07410156 6.77472656 -1.08570313 5.48695313 -1.09765625 4.16015625 C-1 1 -1 1 0 0 Z " fill="#858482" transform="translate(131,233)"/>
<path d="M0 0 C1.05424115 2.68521423 1.12687274 3.7066664 -0.0390625 6.40234375 C-7.33386709 18.0632506 -7.33386709 18.0632506 -12.3125 19.8125 C-12.869375 19.874375 -13.42625 19.93625 -14 20 C-13.70207294 16.60959003 -13.22788773 15.23483055 -10.8203125 12.75390625 C-9.93085938 12.03074219 -9.04140625 11.30757813 -8.125 10.5625 C-4.190327 7.35625771 -2.03048097 4.6727956 0 0 Z " fill="#888888" transform="translate(307,353)"/>
<path d="M0 0 C0.99 0 1.98 0 3 0 C3 6.6 3 13.2 3 20 C2.01 20 1.02 20 0 20 C0 13.4 0 6.8 0 0 Z " fill="#B2B2B2" transform="translate(516,266)"/>
<path d="M0 0 C0.99 0 1.98 0 3 0 C3 6.6 3 13.2 3 20 C2.01 20 1.02 20 0 20 C0 13.4 0 6.8 0 0 Z " fill="#B1B1B1" transform="translate(518,221)"/>
<path d="M0 0 C0.33 0 0.66 0 1 0 C1.0809313 2.60478883 1.14045434 5.20706653 1.1875 7.8125 C1.22520508 8.91948242 1.22520508 8.91948242 1.26367188 10.04882812 C1.33834499 15.54974762 1.33834499 15.54974762 -0.51171875 18.01171875 C-1.24841797 18.50091797 -1.24841797 18.50091797 -2 19 C-3.33827901 16.32344199 -3.20578556 14.17565948 -3.25 11.1875 C-3.27578125 10.14980469 -3.3015625 9.11210937 -3.328125 8.04296875 C-2.95961897 4.62551405 -2.01564596 2.75369814 0 0 Z " fill="#818180" transform="translate(269,347)"/>
<path d="M0 0 C0.66 0 1.32 0 2 0 C2 3.96 2 7.92 2 12 C1.01 12.495 1.01 12.495 0 13 C0 11.68 0 10.36 0 9 C-1.65 9.66 -3.3 10.32 -5 11 C-3.04225352 3.16901408 -3.04225352 3.16901408 0 0 Z " fill="#8C8D8C" transform="translate(73,352)"/>
<path d="M0 0 C0.66 0.33 1.32 0.66 2 1 C2.08078641 3.12438339 2.13909141 5.2496323 2.1875 7.375 C2.22230469 8.55835938 2.25710937 9.74171875 2.29296875 10.9609375 C2.19628906 11.96382813 2.09960938 12.96671875 2 14 C1.01 14.66 0.02 15.32 -1 16 C-1.02692484 13.70839681 -1.04636124 11.41670454 -1.0625 9.125 C-1.07410156 7.84882813 -1.08570313 6.57265625 -1.09765625 5.2578125 C-1 2 -1 2 0 0 Z " fill="#8E8E8D" transform="translate(57,359)"/>
<path d="M0 0 C0.33 0 0.66 0 1 0 C1.22224251 2.58281836 1.42823488 5.16522187 1.625 7.75 C1.68945312 8.47960937 1.75390625 9.20921875 1.8203125 9.9609375 C2.10381649 13.85911736 2.27081383 16.70645322 0 20 C-0.66 20 -1.32 20 -2 20 C-2 17.69 -2 15.38 -2 13 C-1.67 13 -1.34 13 -1 13 C-1.01160156 12.14535156 -1.02320313 11.29070312 -1.03515625 10.41015625 C-1.04417969 9.30542969 -1.05320313 8.20070313 -1.0625 7.0625 C-1.07410156 5.96035156 -1.08570313 4.85820312 -1.09765625 3.72265625 C-1 1 -1 1 0 0 Z " fill="#7E7E7E" transform="translate(59,357)"/>
<path d="M0 0 C1.32 0 2.64 0 4 0 C4 2.64 4 5.28 4 8 C2.68 8 1.36 8 0 8 C0 5.36 0 2.72 0 0 Z " fill="#B3B3B3" transform="translate(542,291)"/>
<path d="M0 0 C2.31 0 4.62 0 7 0 C6.1875 1.9375 6.1875 1.9375 5 4 C4.01 4.33 3.02 4.66 2 5 C2 4.34 2 3.68 2 3 C1.01 2.67 0.02 2.34 -1 2 C-0.67 1.34 -0.34 0.68 0 0 Z " fill="#8F8E8E" transform="translate(295,121)"/>
<path d="M0 0 C2.32590854 3.63423209 2.16265833 6.77088331 2 11 C1.34 11 0.68 11 0 11 C-0.38909985 9.54536519 -0.76088029 8.08608793 -1.125 6.625 C-1.33382813 5.81289063 -1.54265625 5.00078125 -1.7578125 4.1640625 C-1.83773438 3.44992187 -1.91765625 2.73578125 -2 2 C-1.34 1.34 -0.68 0.68 0 0 Z " fill="#EDEDED" transform="translate(273,361)"/>
<path d="M0 0 C1.32 0.66 2.64 1.32 4 2 C2.68 4.97 1.36 7.94 0 11 C-0.33 11 -0.66 11 -1 11 C-0.67 7.37 -0.34 3.74 0 0 Z " fill="#E8E8E8" transform="translate(75,358)"/>
<path d="M0 0 C0.66 0 1.32 0 2 0 C1.67 2.64 1.34 5.28 1 8 C0.34 8 -0.32 8 -1 8 C-1.625 5.125 -1.625 5.125 -2 2 C-1.34 1.34 -0.68 0.68 0 0 Z " fill="#E5E4E4" transform="translate(64,373)"/>
<path d="M0 0 C0.75 1.5625 0.75 1.5625 1 4 C-0.13084437 6.50286409 -1.52139516 8.67007722 -3 11 C-3.99 10.34 -4.98 9.68 -6 9 C-4.73046875 7.53515625 -3.4609375 6.0703125 -2.19140625 4.60546875 C-0.79128769 2.89287029 -0.79128769 2.89287029 0 0 Z " fill="#969696" transform="translate(307,353)"/>
<path d="M0 0 C0 3 0 3 -2.5 5.6875 C-3.325 6.450625 -4.15 7.21375 -5 8 C-5.99 7.34 -6.98 6.68 -8 6 C-5.36 4.02 -2.72 2.04 0 0 Z " fill="#8D8D8D" transform="translate(315,361)"/>
<path d="M0 0 C0.33 0.66 0.66 1.32 1 2 C-2.625 7.875 -2.625 7.875 -6 9 C-4.47291037 5.56404834 -2.40072955 2.88087546 0 0 Z " fill="#BDBDBD" transform="translate(456,361)"/>
</svg>
