<?xml version="1.0" encoding="UTF-8"?>
<svg version="1.1" xmlns="http://www.w3.org/2000/svg" width="736" height="728">
<path d="M0 0 C46.04384095 -0.80677569 108.17575688 8.36401366 146.30859375 36.1328125 C149.22855075 39.50901278 149.90031518 42.58636666 149.73046875 47.0703125 C148.81767134 51.53287762 145.98252769 54.84946315 142.43359375 57.5703125 C134.16807311 59.75824444 128.05570825 56.11224164 120.62109375 52.6953125 C50.34862407 21.38752032 -31.65920016 18.60805464 -103.72509766 45.84692383 C-137.80976784 59.00844387 -169.49915282 77.27295 -196.46875 102.09375 C-198.48702728 103.94531545 -200.5448976 105.7311425 -202.62890625 107.5078125 C-210.6164896 114.49694793 -217.84880618 122.03068399 -224.453125 130.3359375 C-226.76229757 133.22139572 -229.15983959 136.01580962 -231.56640625 138.8203125 C-263.72458042 177.4101215 -283.30091138 226.01191929 -291.69140625 275.1328125 C-291.92899658 276.48173584 -291.92899658 276.48173584 -292.17138672 277.85791016 C-296.11745682 300.80798201 -296.84373155 324.95076097 -294.69140625 348.1328125 C-294.60906738 349.02887207 -294.52672852 349.92493164 -294.44189453 350.84814453 C-290.99593196 386.21014003 -281.64941345 421.30668288 -265.69140625 453.1328125 C-265.30662109 453.91188965 -264.92183594 454.6909668 -264.52539062 455.49365234 C-257.22276675 470.18555152 -248.98439617 484.5968149 -238.80175781 497.49731445 C-237.69140625 499.1328125 -237.69140625 499.1328125 -237.69140625 501.1328125 C-237.03140625 501.1328125 -236.37140625 501.1328125 -235.69140625 501.1328125 C-235.56894531 500.12605469 -235.44648438 499.11929687 -235.3203125 498.08203125 C-229.26904905 460.08310363 -205.37032533 423.46634558 -179.9453125 395.609375 C-178.41718665 393.93029045 -176.90454767 392.23700427 -175.40625 390.53125 C-171.46736283 386.05861997 -167.50708018 381.84587739 -162.9375 378.015625 C-161.27822605 376.62472057 -159.6496907 375.19695611 -158.0390625 373.75 C-151.40275371 367.84336649 -144.38563607 362.70088284 -137.00390625 357.7578125 C-136.13741455 357.17507568 -135.27092285 356.59233887 -134.37817383 355.99194336 C-119.48041847 346.17929604 -119.48041847 346.17929604 -112.94140625 346.0703125 C-107.17665668 347.95494217 -103.95895065 350.81000155 -99.87890625 355.1328125 C-73.83451573 381.61200086 -35.67960285 393.52681303 0.62109375 394.4453125 C40.39890761 393.76022636 76.621852 378.32073665 104.98046875 350.4921875 C108.03906146 347.63092335 110.89410907 346.13417601 115.1328125 345.88671875 C133.56160619 347.9711245 155.60335438 370.9311122 168.30859375 383.1328125 C168.95731445 383.74898438 169.60603516 384.36515625 170.27441406 385 C180.7289564 394.97426406 189.97517912 405.32548888 198.30859375 417.1328125 C198.76314941 417.77460449 199.21770508 418.41639648 199.68603516 419.07763672 C206.21685253 428.38579031 212.01983184 438.06995903 217.30859375 448.1328125 C217.67839355 448.83293457 218.04819336 449.53305664 218.42919922 450.25439453 C226.43117939 465.63694296 234.69919264 483.73116299 236.30859375 501.1328125 C236.96859375 501.1328125 237.62859375 501.1328125 238.30859375 501.1328125 C238.57027344 500.39933594 238.83195313 499.66585938 239.1015625 498.91015625 C240.33016494 496.08317783 241.7189623 494.11065286 243.62109375 491.6953125 C278.83863483 444.03679223 296.13633962 382.53960463 295.68359375 323.7578125 C295.67927338 322.6874173 295.674953 321.61702209 295.67050171 320.51419067 C295.59654681 304.86653054 295.15693396 289.55758399 292.30859375 274.1328125 C292.14230469 273.17407227 291.97601562 272.21533203 291.8046875 271.22753906 C283.88313932 226.26541838 265.42624185 183.78195586 238.4296875 147.04296875 C231.60426892 137.67844418 231.60426892 137.67844418 231.92578125 131.3125 C232.76723122 126.52138691 235.19154449 123.91982448 239.05859375 121.1953125 C243.01133787 119.90306923 246.42674227 119.64857517 250.30859375 121.1328125 C255.28955218 124.72829403 258.70651482 128.89953129 262.24609375 133.8828125 C263.07536377 135.04441895 263.07536377 135.04441895 263.92138672 136.22949219 C280.87522384 160.41412902 294.23625846 186.41078877 304.30859375 214.1328125 C304.62812012 215.00228516 304.94764648 215.87175781 305.27685547 216.76757812 C315.87142695 245.89849605 321.53619752 277.06448023 322.87109375 308.0078125 C322.93586914 309.36326172 322.93586914 309.36326172 323.00195312 310.74609375 C324.50231343 344.32558628 319.96271866 377.72292017 311.30859375 410.1328125 C311.08478027 410.98858887 310.8609668 411.84436523 310.63037109 412.72607422 C300.61366039 450.49632989 281.80038283 486.05433088 258.30859375 517.1328125 C257.8815918 517.70112793 257.45458984 518.26944336 257.01464844 518.85498047 C250.67874157 527.24971047 243.86781464 535.04172178 236.65283203 542.68701172 C234.73580604 544.74887658 232.89983725 546.8783117 231.05859375 549.0078125 C228.11269668 552.33926665 225.01720379 555.26734466 221.62109375 558.1328125 C219.27749049 560.15971261 217.02808943 562.26251207 214.77563477 564.38916016 C155.52751361 620.114042 70.94105654 648.30084692 -9.56640625 646.0078125 C-34.38673745 645.17432479 -58.66000916 641.38145734 -82.69140625 635.1328125 C-83.58408203 634.90899902 -84.47675781 634.68518555 -85.39648438 634.45458984 C-106.07027111 629.23940513 -125.92086677 621.20644922 -145.06640625 611.8828125 C-146.05229736 611.41214355 -147.03818848 610.94147461 -148.05395508 610.45654297 C-154.72952514 607.09740501 -160.17963791 603.40133487 -162.75390625 596.1328125 C-162.67053339 592.13091528 -161.63133919 589.6246918 -159.69140625 586.1328125 C-155.9826436 582.69542273 -153.09078592 580.64431316 -147.91748047 580.73095703 C-142.8108557 581.65281537 -138.27740255 584.63996709 -133.75390625 587.0703125 C-121.37326412 593.47983325 -108.89621364 598.68631826 -95.69140625 603.1328125 C-94.73669434 603.45475586 -93.78198242 603.77669922 -92.79833984 604.10839844 C-78.32325484 608.9096743 -63.70792194 612.49290012 -48.69140625 615.1328125 C-47.79518555 615.29797363 -46.89896484 615.46313477 -45.97558594 615.63330078 C-13.58778351 621.36728191 22.07704908 620.14465234 54.30859375 614.1328125 C55.27732422 613.9668457 56.24605469 613.80087891 57.24414062 613.62988281 C82.31208975 609.29618974 107.6073233 600.53738163 130.30859375 589.1328125 C131.10362305 588.73739258 131.89865234 588.34197266 132.71777344 587.93457031 C156.63518166 575.95211033 178.4027688 561.01134452 198.30859375 543.1328125 C199.31623779 542.24166748 199.31623779 542.24166748 200.34423828 541.33251953 C202.44893708 539.46678217 204.5370794 537.58410534 206.62109375 535.6953125 C207.27432617 535.11587891 207.92755859 534.53644531 208.60058594 533.93945312 C209.20161133 533.38580078 209.80263672 532.83214844 210.421875 532.26171875 C210.95594971 531.77775635 211.49002441 531.29379395 212.0402832 530.79516602 C214.17459553 527.99775838 214.41739469 525.27710661 214.09008789 521.8347168 C213.92629639 521.05008057 213.76250488 520.26544434 213.59375 519.45703125 C213.4066748 518.55919922 213.21959961 517.66136719 213.02685547 516.73632812 C212.70225342 515.29290039 212.70225342 515.29290039 212.37109375 513.8203125 C212.14437988 512.80775391 211.91766602 511.79519531 211.68408203 510.75195312 C205.93938101 486.10251555 196.56861712 462.14758379 182.30859375 441.1328125 C181.64174561 440.13991211 181.64174561 440.13991211 180.96142578 439.12695312 C174.66310513 429.79205489 168.06941586 421.30281679 160.30859375 413.1328125 C159.17721309 411.80488909 158.05174245 410.47189661 156.93359375 409.1328125 C148.2688565 399.21582885 137.78431657 391.03317278 127.30859375 383.1328125 C126.41398437 382.441875 125.519375 381.7509375 124.59765625 381.0390625 C123.82164062 380.471875 123.045625 379.9046875 122.24609375 379.3203125 C121.59511719 378.83949219 120.94414062 378.35867188 120.2734375 377.86328125 C118.23630635 376.89044693 118.23630635 376.89044693 115.7734375 377.80859375 C113.41847899 379.07377748 111.83489197 380.27614569 109.93359375 382.1328125 C78.88545937 410.0127699 33.48406956 423.1768502 -7.69140625 421.1328125 C-44.22421563 419.14011381 -82.10537974 406.5666221 -109.53198242 381.6237793 C-113.10801151 378.15344496 -113.10801151 378.15344496 -117.69140625 377.1328125 C-120.05779497 378.50139909 -122.09446076 379.86278681 -124.25390625 381.5078125 C-125.18372314 382.19629272 -125.18372314 382.19629272 -126.13232422 382.89868164 C-145.12152942 397.07588846 -161.77648455 412.94691846 -175.69140625 432.1328125 C-176.08650391 432.67147949 -176.48160156 433.21014648 -176.88867188 433.76513672 C-198.0290702 462.90670871 -210.70567267 497.68650291 -215.05102539 533.3046875 C-216.02378399 537.60069803 -218.32087088 540.38509345 -221.69140625 543.1328125 C-223.96255101 544.26838488 -225.41434244 544.36365568 -227.94140625 544.4453125 C-228.6890625 544.48269531 -229.43671875 544.52007813 -230.20703125 544.55859375 C-240.99611721 542.70952084 -249.55390219 528.42673691 -255.69140625 520.1328125 C-256.36961426 519.23079102 -256.36961426 519.23079102 -257.06152344 518.31054688 C-299.41040743 461.86340822 -325.13393987 390.19527508 -322.69140625 319.1328125 C-322.67207031 318.33439941 -322.65273438 317.53598633 -322.6328125 316.71337891 C-320.79537133 242.39158587 -294.16003772 169.05057538 -244.69140625 113.1328125 C-243.55445313 111.84697266 -243.55445313 111.84697266 -242.39453125 110.53515625 C-240.17590823 108.05297341 -237.93481847 105.59259442 -235.69140625 103.1328125 C-234.81613281 102.153125 -233.94085938 101.1734375 -233.0390625 100.1640625 C-227.26670266 93.72891625 -221.24278469 87.78218956 -214.69140625 82.1328125 C-213.66721751 81.2235017 -212.64382039 80.31329871 -211.62109375 79.40234375 C-152.40001917 27.1041234 -77.94999191 2.80454997 0 0 Z " fill="#FDFDFD" transform="translate(367.69140625,36.8671875)"/>
<path d="M0 0 C2.51478074 2.21845308 4.92707655 4.5106342 7.328125 6.8515625 C8.31588471 7.77790018 9.30419154 8.70365472 10.29296875 9.62890625 C27.50642571 25.98169037 38.36642716 47.0330376 44.328125 69.8515625 C44.58207031 70.79644531 44.83601562 71.74132812 45.09765625 72.71484375 C51.79794178 102.93843387 45.49125971 137.26466544 29.44921875 163.55078125 C12.19654521 190.39886439 -12.68062896 210.5094496 -43.421875 219.7265625 C-44.05778564 219.91766602 -44.69369629 220.10876953 -45.34887695 220.30566406 C-56.4076665 223.38507937 -67.54795526 224.21730114 -78.984375 224.1640625 C-80.25966064 224.15842285 -81.53494629 224.1527832 -82.84887695 224.14697266 C-92.14134216 224.02734497 -100.68649127 223.38198406 -109.671875 220.8515625 C-110.73075928 220.55354736 -110.73075928 220.55354736 -111.81103516 220.24951172 C-145.09997433 210.62822274 -172.36495142 189.28450153 -189.49462891 159.03613281 C-198.15571975 142.96407955 -204.26200284 124.21383539 -204.671875 105.8515625 C-204.72214844 104.7790625 -204.77242187 103.7065625 -204.82421875 102.6015625 C-205.80943339 66.03039525 -191.3939799 34.20764657 -166.671875 7.8515625 C-164.13153032 5.31121782 -161.51972772 3.03790612 -158.671875 0.8515625 C-157.91390625 0.24570313 -157.1559375 -0.36015625 -156.375 -0.984375 C-110.50133115 -36.15418778 -45.32581696 -36.44619785 0 0 Z M-154.9296875 33.2890625 C-172.35958493 54.06823434 -180.20169512 80.60331249 -178.43359375 107.47265625 C-175.84689727 133.83605771 -162.98662767 158.74597795 -142.671875 175.8515625 C-120.02147492 193.76961277 -92.80213404 200.22366359 -64.26757812 197.63330078 C-59.96463179 197.05856452 -55.83649936 196.05891252 -51.671875 194.8515625 C-50.53234375 194.52285156 -49.3928125 194.19414062 -48.21875 193.85546875 C-34.13867354 189.29365025 -21.59637234 181.79878852 -10.671875 171.8515625 C-9.90617188 171.17867187 -9.14046875 170.50578125 -8.3515625 169.8125 C11.0930755 151.72288904 19.56738267 126.22822668 21.51171875 100.4140625 C22.38660799 73.24103192 11.00109572 48.9517632 -6.4375 28.8125 C-23.72129532 10.43797973 -48.59879529 -0.41372286 -73.61328125 -1.36328125 C-105.57823009 -2.15128281 -133.17425848 9.80223256 -154.9296875 33.2890625 Z " fill="#FDFDFD" transform="translate(446.671875,169.1484375)"/>
<path d="M0 0 C0.66 0.33 1.32 0.66 2 1 C0.36587557 2.70840281 -0.86906094 3.93453047 -3 5 C-3.33 5.99 -3.66 6.98 -4 8 C-5.1446875 8.0309375 -5.1446875 8.0309375 -6.3125 8.0625 C-7.199375 8.371875 -8.08625 8.68125 -9 9 C-10.06902939 11.30252483 -11.07175817 13.6372026 -12 16 C-12.99 16.33 -13.98 16.66 -15 17 C-15.66 17.66 -16.32 18.32 -17 19 C-17.66 18.67 -18.32 18.34 -19 18 C-19.33 18.99 -19.66 19.98 -20 21 C-20.99 21 -21.98 21 -23 21 C-23 20.01 -23 19.02 -23 18 C-21.05859375 16.203125 -21.05859375 16.203125 -18.4375 14.25 C-15.13621896 11.72165641 -12.10562115 9.20996644 -9.25 6.1875 C-6.45567423 3.30069063 -3.82028653 1.42150197 0 0 Z " fill="#F6F6F6" transform="translate(480,383)"/>
<path d="M0 0 C0 3.74016583 -0.9341591 4.45276193 -3.375 7.1875 C-4.00148437 7.90292969 -4.62796875 8.61835938 -5.2734375 9.35546875 C-7 11 -7 11 -9 11 C-7.59155282 7.78475695 -5.89655214 5.67816132 -3.375 3.25 C-2.74335938 2.63640625 -2.11171875 2.0228125 -1.4609375 1.390625 C-0.73777344 0.70226562 -0.73777344 0.70226562 0 0 Z M-10 11 C-9.34 11.66 -8.68 12.32 -8 13 C-8.66 13.66 -9.32 14.32 -10 15 C-10.33 14.01 -10.66 13.02 -11 12 C-10.67 11.67 -10.34 11.34 -10 11 Z M-15 16 C-15 19 -15 19 -16 22 C-16.66 21.67 -17.32 21.34 -18 21 C-16.125 17.125 -16.125 17.125 -15 16 Z " fill="#F4F4F4" transform="translate(144,127)"/>
<path d="M0 0 C0.66 0.33 1.32 0.66 2 1 C0.68 2.32 -0.64 3.64 -2 5 C-1.67 5.66 -1.34 6.32 -1 7 C-1.99 7 -2.98 7 -4 7 C-3.67 7.99 -3.34 8.98 -3 10 C-3.99 10 -4.98 10 -6 10 C-6 6.41087588 -5.33563446 5.89142971 -3 3.3125 C-2.443125 2.68988281 -1.88625 2.06726563 -1.3125 1.42578125 C-0.879375 0.95527344 -0.44625 0.48476563 0 0 Z M-13 14 C-12.34 14.66 -11.68 15.32 -11 16 C-11.99 16.99 -12.98 17.98 -14 19 C-14 15 -14 15 -13 14 Z " fill="#EDEDED" transform="translate(198,421)"/>
<path d="M0 0 C0.66 0.33 1.32 0.66 2 1 C-0.21689838 5.43379675 -2.77728219 7.46636932 -7 10 C-7.66 8.68 -8.32 7.36 -9 6 C-6 4 -6 4 -3.9375 3.5625 C-1.60942182 3.11223305 -1.60942182 3.11223305 0 0 Z " fill="#F5F5F5" transform="translate(170,135)"/>
<path d="M0 0 C0.99 0.33 1.98 0.66 3 1 C2.67 1.99 2.34 2.98 2 4 C1.34 4 0.68 4 0 4 C0 4.66 0 5.32 0 6 C-1.62626404 7.38232443 -3.2925002 8.71937515 -5 10 C-5.33 9.34 -5.66 8.68 -6 8 C-4.02 5.36 -2.04 2.72 0 0 Z " fill="#F6F6F6" transform="translate(179,442)"/>
<path d="M0 0 C0.66 0.33 1.32 0.66 2 1 C0.02 1.99 0.02 1.99 -2 3 C-1.34 2.01 -0.68 1.02 0 0 Z M-3 3 C-2.34 3.66 -1.68 4.32 -1 5 C-1.99 5 -2.98 5 -4 5 C-3.67 4.34 -3.34 3.68 -3 3 Z M-6 5 C-5.34 5.33 -4.68 5.66 -4 6 C-4.99 6.99 -5.98 7.98 -7 9 C-7.66 8.67 -8.32 8.34 -9 8 C-8.01 7.01 -7.02 6.02 -6 5 Z M-11 9 C-10.34 9.33 -9.68 9.66 -9 10 C-9 10.99 -9 11.98 -9 13 C-10.32 12.67 -11.64 12.34 -13 12 C-12.34 11.01 -11.68 10.02 -11 9 Z " fill="#F3F3F3" transform="translate(560,585)"/>
<path d="M0 0 C2.33524782 2.25740623 4.18705073 4.2805761 6 7 C8.05925139 7.72382467 8.05925139 7.72382467 10 8 C9.67 8.66 9.34 9.32 9 10 C5.00499382 8.6302836 2.19990508 6.74277578 -1 4 C-0.67 2.68 -0.34 1.36 0 0 Z " fill="#F3F3F3" transform="translate(502,421)"/>
<path d="M0 0 C0 0.99 0 1.98 0 3 C-1.32 3.33 -2.64 3.66 -4 4 C-2.68 2.68 -1.36 1.36 0 0 Z M-7 5 C-6.34 5.33 -5.68 5.66 -5 6 C-5.99 6 -6.98 6 -8 6 C-7.67 5.67 -7.34 5.34 -7 5 Z M-10 7 C-9.34 7.33 -8.68 7.66 -8 8 C-8.99 8 -9.98 8 -11 8 C-10.67 7.67 -10.34 7.34 -10 7 Z M-13 9 C-12.34 9.33 -11.68 9.66 -11 10 C-13.475 11.485 -13.475 11.485 -16 13 C-15.67 12.01 -15.34 11.02 -15 10 C-14.34 9.67 -13.68 9.34 -13 9 Z " fill="#F4F4F4" transform="translate(433,343)"/>
<path d="M0 0 C0.99 1.32 1.98 2.64 3 4 C1.35 5.65 -0.3 7.3 -2 9 C-2.6875 6.75 -2.6875 6.75 -3 4 C-1.5625 1.6875 -1.5625 1.6875 0 0 Z " fill="#F4F4F4" transform="translate(149,153)"/>
<path d="M0 0 C0.66 0 1.32 0 2 0 C2.99 2.31 3.98 4.62 5 7 C4.01 7.33 3.02 7.66 2 8 C0.4375 6.25 0.4375 6.25 -1 4 C-0.6875 1.75 -0.6875 1.75 0 0 Z " fill="#F7F7F7" transform="translate(586,491)"/>
<path d="M0 0 C0.33 0.66 0.66 1.32 1 2 C3.52733235 2.65555119 3.52733235 2.65555119 6 3 C6.33 3.99 6.66 4.98 7 6 C5.68 6.33 4.36 6.66 3 7 C1.68 5.02 0.36 3.04 -1 1 C-0.67 0.67 -0.34 0.34 0 0 Z " fill="#F7F7F7" transform="translate(448,206)"/>
<path d="M0 0 C0.66 0.33 1.32 0.66 2 1 C-0.3125 3.5 -0.3125 3.5 -3 6 C-3.99 6 -4.98 6 -6 6 C-4 4 -2 2 0 0 Z " fill="#F5F5F5" transform="translate(176,100)"/>
<path d="M0 0 C0.99 0.33 1.98 0.66 3 1 C1.68 2.65 0.36 4.3 -1 6 C-1.33 5.34 -1.66 4.68 -2 4 C-3.32 4.99 -4.64 5.98 -6 7 C-4.61990379 3.66476748 -3.15049348 1.81392049 0 0 Z " fill="#EFEFEF" transform="translate(282,176)"/>
<path d="M0 0 C0.99 0.99 1.98 1.98 3 3 C2.01 4.485 2.01 4.485 1 6 C0.01 5.67 -0.98 5.34 -2 5 C-1.34 3.35 -0.68 1.7 0 0 Z " fill="#F7F7F7" transform="translate(603,161)"/>
<path d="M0 0 C0.66 0.33 1.32 0.66 2 1 C0.55746343 4.36591866 -1.33264727 6.51047079 -4 9 C-4.66 8.67 -5.32 8.34 -6 8 C-4.73046875 6.50260417 -3.4609375 5.00520833 -2.19140625 3.5078125 C-0.9121848 1.99405921 -0.9121848 1.99405921 0 0 Z " fill="#E9E9E9" transform="translate(458,351)"/>
<path d="M0 0 C0 3 0 3 -2.375 5.625 C-5 8 -5 8 -7 9 C-5.44499019 5.18315774 -2.96404505 2.80804268 0 0 Z " fill="#EBEBEB" transform="translate(144,127)"/>
</svg>
