<?xml version="1.0" encoding="UTF-8"?>
<svg version="1.1" xmlns="http://www.w3.org/2000/svg" width="1315" height="341">
<path d="M0 0 C1.12245872 -0.0098568 1.12245872 -0.0098568 2.26759338 -0.01991272 C4.76327617 -0.03973338 7.25889783 -0.05134229 9.75463867 -0.0612793 C11.03972604 -0.06739259 11.03972604 -0.06739259 12.35077477 -0.07362938 C16.90604793 -0.09455072 21.46129065 -0.10881269 26.01660156 -0.11816406 C30.67034959 -0.12909895 35.32360205 -0.1633269 39.97717762 -0.20333576 C43.59377259 -0.22983848 47.21025707 -0.23788635 50.82694054 -0.24144554 C52.53812606 -0.24624419 54.24930901 -0.25765926 55.96039772 -0.27648354 C77.72923455 -0.50061664 97.57564122 2.42941327 113.84057617 18.0637207 C123.05748313 27.70849181 125.29194397 40.42529228 125.07495117 53.3215332 C124.38137878 65.76800497 119.02487294 77.67078246 109.86010742 86.17700195 C104.24972836 90.49493767 98.096682 95.17700195 90.86010742 95.17700195 C93.55960219 102.35212754 96.75738977 109.10284122 100.36010742 115.86450195 C101.42409487 117.88133126 102.48789115 119.89826142 103.55151367 121.9152832 C104.09565918 122.94347168 104.63980469 123.97166016 105.20043945 125.03100586 C106.85727409 128.17163121 108.4999943 131.31920338 110.13745117 134.4699707 C110.66725586 135.48937744 111.19706055 136.50878418 111.74291992 137.55908203 C112.74984432 139.49750637 113.7563798 141.43613279 114.76245117 143.375 C117.39925599 148.43848926 120.10540434 153.44305015 122.96191406 158.38647461 C123.86010742 160.17700195 123.86010742 160.17700195 123.86010742 162.17700195 C124.85010742 162.17700195 125.84010742 162.17700195 126.86010742 162.17700195 C127.19051025 160.45912476 127.19051025 160.45912476 127.52758789 158.70654297 C129.19872399 151.21627547 131.76500321 143.97946233 134.18041992 136.7043457 C134.71748453 135.07622517 135.25417871 133.44798239 135.79052734 131.81962585 C137.22142805 127.47915649 138.65774841 123.14049892 140.09519196 118.80219269 C141.28506761 115.20857297 142.47157542 111.61384549 143.65798759 108.01908112 C151.02508642 85.69723224 158.43284643 63.38897002 165.89404297 41.09838867 C169.60759303 29.99572892 173.25929529 18.87753205 176.74536133 7.70092773 C177.01912598 6.82807129 177.29289063 5.95521484 177.57495117 5.0559082 C177.91707642 3.95098022 177.91707642 3.95098022 178.26611328 2.82373047 C178.86010742 1.17700195 178.86010742 1.17700195 179.86010742 0.17700195 C181.27235788 0.08412935 182.68919677 0.05953424 184.10449219 0.06347656 C185.00535049 0.06355209 185.9062088 0.06362762 186.83436584 0.06370544 C187.81352463 0.06886673 188.79268341 0.07402802 189.80151367 0.0793457 C190.79892075 0.08076065 191.79632782 0.0821756 192.82395935 0.08363342 C196.02353866 0.08925081 199.22304911 0.10180624 202.42260742 0.11450195 C204.58601787 0.11951471 206.74942942 0.12407801 208.9128418 0.12817383 C214.22862067 0.13922588 219.54435913 0.15598092 224.86010742 0.17700195 C228.66744874 8.2149707 231.44230705 16.52216629 234.22729492 24.95043945 C234.74351407 26.50182951 235.26010365 28.05309635 235.77703857 29.60424805 C237.15135341 33.73216782 238.51990571 37.86197589 239.88715363 41.99224091 C241.02382142 45.42355751 242.16390437 48.85373536 243.30395317 52.28392982 C249.96089886 72.3153533 256.5829745 92.35801464 263.06518555 112.44677734 C265.99053704 121.50270614 268.98064386 130.53376156 272.03198242 139.5480957 C272.73953899 141.64460013 273.4470588 143.74111696 274.15454102 145.83764648 C275.50681961 149.84342613 276.87078045 153.84496586 278.24145508 157.84448242 C278.85174338 159.64918901 279.46162824 161.4540321 280.07104492 163.2590332 C280.35461853 164.07560898 280.63819214 164.89218475 280.93035889 165.73350525 C282.36080276 170.00447358 283.29217566 173.60643269 282.86010742 178.17700195 C280.17364725 180.86346213 272.56338399 179.4953314 268.70483398 179.52709961 C267.22843669 179.5436628 265.75211972 179.57095853 264.27612305 179.60913086 C262.15004816 179.66385302 260.02585377 179.68576226 257.89916992 179.70043945 C256.62251465 179.72025879 255.34585937 179.74007812 254.03051758 179.76049805 C250.86010742 179.17700195 250.86010742 179.17700195 249.12988281 177.27636719 C247.35217518 172.93720196 245.89427171 168.54086356 244.50463867 164.0637207 C244.23244507 163.20379517 243.96025146 162.34386963 243.67980957 161.45788574 C242.67037483 158.26230458 241.6721479 155.06319173 240.67260742 151.86450195 C238.42448242 144.70762695 236.17635742 137.55075195 233.86010742 130.17700195 C212.74010742 130.17700195 191.62010742 130.17700195 169.86010742 130.17700195 C166.08672175 142.23106551 166.08672175 142.23106551 162.32202148 154.2878418 C155.27997854 176.75713083 155.27997854 176.75713083 152.86010742 179.17700195 C151.16928567 179.31235928 149.4728889 179.37876995 147.77709961 179.41748047 C146.69217224 179.44322647 145.60724487 179.46897247 144.48944092 179.49549866 C139.5133369 179.57940868 134.53738969 179.64553257 129.56079102 179.69189453 C126.93391829 179.72354947 124.30718875 179.77131797 121.6809082 179.83544922 C117.90155062 179.92654387 114.12477104 179.96548394 110.34448242 179.9934082 C109.17036804 180.03156143 107.99625366 180.06971466 106.78656006 180.10902405 C98.83859159 180.090026 98.83859159 180.090026 96.06462097 177.50163269 C94.75380584 175.44211556 93.77892718 173.43533426 92.86010742 171.17700195 C92.4035376 170.36384521 91.94696777 169.55068848 91.4765625 168.71289062 C91.11457764 168.01397705 90.75259277 167.31506348 90.37963867 166.5949707 C89.9466748 165.76255859 89.51371094 164.93014648 89.06762695 164.07250977 C88.60727051 163.17886719 88.14691406 162.28522461 87.67260742 161.36450195 C87.1735791 160.40253906 86.67455078 159.44057617 86.16040039 158.44946289 C82.85375899 152.06565685 79.57066872 145.66973106 76.28588867 139.2746582 C75.69222252 138.11917732 75.69222252 138.11917732 75.08656311 136.94035339 C73.11512838 133.102774 71.14550821 129.26428658 69.1796875 125.42382812 C68.44037329 123.98216492 67.7010351 122.54051402 66.96166992 121.09887695 C66.6369722 120.46301163 66.31227448 119.8271463 65.97773743 119.17201233 C65.31983335 117.89049566 64.64292597 116.61858316 63.9487915 115.35632324 C62.86010742 113.17700195 62.86010742 113.17700195 61.84515381 110.2779541 C60.50663548 106.95697979 59.38187476 104.73537296 56.86010742 102.17700195 C51.38651446 100.65010176 46.12544489 100.8151153 40.48510742 100.98950195 C38.97079926 100.99646615 37.45645966 100.99846914 35.94213867 100.99536133 C32.24602343 100.99853797 28.55482694 101.06941649 24.86010742 101.17700195 C24.86232803 102.13944321 24.86454865 103.10188446 24.86683655 104.0934906 C24.88706854 113.14360602 24.90207984 122.19371689 24.91191959 131.24384975 C24.91714828 135.89711382 24.92424565 140.55035969 24.93554688 145.20361328 C24.94637628 149.69044741 24.95238437 154.177264 24.95498466 158.66411018 C24.95683882 160.37980488 24.96045924 162.09549857 24.96583748 163.81118584 C24.97304863 166.20585108 24.97409833 168.60044291 24.97363281 170.99511719 C24.97722809 171.71152878 24.98082336 172.42794037 24.98452759 173.1660614 C24.97415958 178.06294979 24.97415958 178.06294979 23.86010742 179.17700195 C21.58062951 179.27721125 19.29803607 179.30781499 17.01635742 179.30981445 C15.98992126 179.31124954 15.98992126 179.31124954 14.94274902 179.31271362 C13.49348865 179.31339525 12.04422524 179.31154218 10.5949707 179.30737305 C8.36947814 179.30202447 6.14418741 179.30731855 3.91870117 179.3137207 C2.51375281 179.31305992 1.10880457 179.31177875 -0.29614258 179.30981445 C-1.58327148 179.30868652 -2.87040039 179.30755859 -4.1965332 179.30639648 C-7.13989258 179.17700195 -7.13989258 179.17700195 -8.13989258 178.17700195 C-8.2391832 175.90106353 -8.26621707 173.6219752 -8.26687622 171.34387207 C-8.26843621 170.62093444 -8.2699962 169.89799682 -8.27160347 169.15315199 C-8.275616 166.71251399 -8.27242285 164.27193737 -8.26928711 161.83129883 C-8.27064104 160.08895328 -8.27242092 158.34660802 -8.27459717 156.60426331 C-8.2791725 151.85853187 -8.27738153 147.11282206 -8.27421808 142.36709023 C-8.271695 137.4120846 -8.27403187 132.45708089 -8.27560425 127.5020752 C-8.2774261 119.17935858 -8.27501924 110.85665082 -8.27026367 102.53393555 C-8.26482102 92.89717572 -8.26658367 83.26043705 -8.27209008 73.62367773 C-8.27662078 65.36553436 -8.27727197 57.10739738 -8.27465141 48.84925318 C-8.2730884 43.91011362 -8.27289552 38.97098402 -8.2761879 34.03184509 C-8.27906599 29.38951052 -8.27709206 24.74720335 -8.27129364 20.10487175 C-8.26996571 18.39598066 -8.27036071 16.68708729 -8.2725563 14.9781971 C-8.27526652 12.65547701 -8.27188829 10.33284616 -8.26687622 8.01013184 C-8.2664992 6.70709358 -8.26612217 5.40405533 -8.26573372 4.06153107 C-8.02856581 -1.3748288 -4.47422254 0.01687241 0 0 Z M24.86010742 28.17700195 C24.86010742 43.35700195 24.86010742 58.53700195 24.86010742 74.17700195 C31.21260742 74.21825195 37.56510742 74.25950195 44.11010742 74.30200195 C46.08914063 74.32020996 48.06817383 74.33841797 50.10717773 74.35717773 C70.06054841 74.87787335 70.06054841 74.87787335 87.17260742 65.98950195 C91.8190615 58.24541182 92.91132727 50.91072742 90.79760742 42.11450195 C89.04407054 36.7973256 86.67397736 33.97244441 81.86010742 31.17700195 C74.51181121 28.43914547 67.50257727 27.75660421 59.72338867 27.8840332 C58.38358948 27.88856506 58.38358948 27.88856506 57.01672363 27.89318848 C53.73523108 27.90867972 50.45390548 27.95056059 47.17260742 27.98950195 C39.80948242 28.05137695 32.44635742 28.11325195 24.86010742 28.17700195 Z M200.86010742 30.17700195 C195.15535729 47.04238741 189.60979979 63.95346009 184.23510742 80.92700195 C183.96581421 81.77417786 183.696521 82.62135376 183.41906738 83.49420166 C182.65402866 85.90309671 181.89306989 88.31323853 181.13354492 90.72387695 C180.78738632 91.81250534 180.78738632 91.81250534 180.43423462 92.92312622 C179.26283194 96.48156703 179.26283194 96.48156703 178.86010742 100.17700195 C193.71010742 100.17700195 208.56010742 100.17700195 223.86010742 100.17700195 C223.18137598 95.42588183 222.54185796 91.69462145 221.12597656 87.24511719 C220.77213394 86.12382919 220.41829132 85.0025412 220.0537262 83.84727478 C219.67143356 82.65542068 219.28914093 81.46356659 218.89526367 80.2355957 C218.50189316 78.99455582 218.10852264 77.75351593 217.70323181 76.47486877 C216.66169621 73.1893514 215.61349192 69.90599918 214.56390381 66.62304688 C213.50018443 63.2914701 212.44324017 59.95774577 211.38549805 56.62426758 C207.19217641 43.37810816 207.19217641 43.37810816 202.86010742 30.17700195 C202.20010742 30.17700195 201.54010742 30.17700195 200.86010742 30.17700195 Z " fill="#FEFEFE" transform="translate(558.139892578125,84.822998046875)"/>
<path d="M0 0 C0.9880513 -0.01929062 1.9761026 -0.03858124 2.99409485 -0.05845642 C7.52207052 -0.11594531 12.0498822 -0.16547622 16.578125 -0.19628906 C18.96922226 -0.217889 21.36024003 -0.2520149 23.75097656 -0.29882812 C27.19005817 -0.36560872 30.62750136 -0.39325359 34.06713867 -0.41235352 C35.13704544 -0.44018417 36.20695221 -0.46801483 37.3092804 -0.49668884 C40.11342718 -0.48888928 42.62517366 -0.40961826 45.36010742 0.20874023 C47.86010742 2.80004883 47.86010742 2.80004883 49.36010742 6.20874023 C50.17838013 7.89108765 50.17838013 7.89108765 51.01318359 9.60742188 C51.56545213 10.85877377 52.11179087 12.11275464 52.65307617 13.36889648 C52.95607132 14.05829819 53.25906647 14.74769989 53.57124329 15.45799255 C54.22536396 16.94712875 54.87707754 18.43732417 55.52661133 19.9284668 C57.29543897 23.98721143 59.0838574 28.03730563 60.87182617 32.08764648 C61.24181732 32.92659454 61.61180847 33.7655426 61.99301147 34.62991333 C65.85493275 43.36629515 69.85133181 52.03902766 73.86010742 60.70874023 C80.55819196 75.21086183 87.10255564 89.77569802 93.56311035 104.38504028 C93.88283813 105.10803314 94.20256592 105.831026 94.53198242 106.57592773 C94.84880981 107.29255585 95.16563721 108.00918396 95.49206543 108.74752808 C97.72361219 113.78859819 99.98043739 118.81782584 102.25073242 123.84155273 C102.55891907 124.52445374 102.86710571 125.20735474 103.18463135 125.91094971 C104.94904586 129.82047894 104.94904586 129.82047894 106.72106934 133.7265625 C107.51015794 135.46137571 108.29463938 137.19828236 109.07885742 138.93530273 C109.52165039 139.91063965 109.96444336 140.88597656 110.4206543 141.89086914 C111.36010742 144.20874023 111.36010742 144.20874023 111.36010742 146.20874023 C112.02010742 146.20874023 112.68010742 146.20874023 113.36010742 146.20874023 C113.35918563 145.46237084 113.35826384 144.71600145 113.35731411 143.94701481 C113.33525998 125.81254427 113.31869641 107.67807639 113.30829525 89.54359531 C113.30313204 80.77401308 113.29608888 72.00443978 113.28466797 63.23486328 C113.27472188 55.59411121 113.26825417 47.9533656 113.26601893 40.31260723 C113.26471169 36.26435638 113.26162504 32.21612404 113.25437737 28.1678791 C113.24761833 24.36193154 113.24549022 20.55601021 113.24699974 16.75005722 C113.24672336 15.34916352 113.24471754 13.94826898 113.24090195 12.54738045 C113.23596659 10.64284516 113.23770943 8.73829597 113.23985291 6.83375549 C113.23893111 5.76539742 113.23800932 4.69703936 113.23705959 3.5963068 C113.36010742 1.20874023 113.36010742 1.20874023 114.36010742 0.20874023 C116.42066052 0.10880492 118.48463332 0.07793118 120.54760742 0.07592773 C121.8031543 0.07463867 123.05870117 0.07334961 124.35229492 0.07202148 C125.00939453 0.07411621 125.66649414 0.07621094 126.34350586 0.07836914 C128.35172077 0.0837179 130.35971201 0.07842332 132.36791992 0.07202148 C134.25124023 0.07395508 134.25124023 0.07395508 136.17260742 0.07592773 C137.33405273 0.07705566 138.49549805 0.07818359 139.69213867 0.0793457 C142.36010742 0.20874023 142.36010742 0.20874023 143.36010742 1.20874023 C143.45939804 3.48467865 143.48643191 5.76376698 143.48709106 8.04187012 C143.48865106 8.76480774 143.49021105 9.48774537 143.49181831 10.2325902 C143.49583085 12.6732282 143.4926377 15.11380481 143.48950195 17.55444336 C143.49085588 19.29678891 143.49263577 21.03913417 143.49481201 22.78147888 C143.49938735 27.52721032 143.49759638 32.27292012 143.49443293 37.01865196 C143.49190984 41.97365759 143.49424672 46.9286613 143.49581909 51.88366699 C143.49764094 60.20638361 143.49523408 68.52909137 143.49047852 76.85180664 C143.48503587 86.48856647 143.48679851 96.12530514 143.49230492 105.76206446 C143.49683562 114.02020782 143.49748681 122.2783448 143.49486625 130.53648901 C143.49330324 135.47562857 143.49311037 140.41475817 143.49640274 145.35389709 C143.49928083 149.99623167 143.49730691 154.63853884 143.49150848 159.28087044 C143.49018055 160.98976152 143.49057556 162.6986549 143.49277115 164.40754509 C143.49548137 166.73026518 143.49210313 169.05289603 143.48709106 171.37561035 C143.48652553 173.33016773 143.48652553 173.33016773 143.48594856 175.32421112 C143.36010742 178.20874023 143.36010742 178.20874023 142.36010742 179.20874023 C140.81126071 179.32281212 139.25728957 179.36831011 137.7043457 179.38574219 C136.21742722 179.40499504 136.21742722 179.40499504 134.70046997 179.42463684 C133.62135345 179.43202377 132.54223694 179.43941071 131.43041992 179.44702148 C129.77851151 179.4591291 129.77851151 179.4591291 128.0932312 179.47148132 C125.75788965 179.48534046 123.42252768 179.49605438 121.0871582 179.50390625 C117.50718032 179.52113401 113.92812195 179.56500662 110.34838867 179.60913086 C108.08407257 179.61925578 105.8197486 179.62777251 103.55541992 179.63452148 C102.48035187 179.65202957 101.40528381 179.66953766 100.29763794 179.68757629 C99.30005463 179.68465073 98.30247131 179.68172516 97.2746582 179.67871094 C96.39609161 179.68457718 95.51752502 179.69044342 94.61233521 179.69648743 C92.36010742 179.20874023 92.36010742 179.20874023 90.63096619 177.3344574 C89.18030882 174.90799794 87.99753402 172.46819856 86.85620117 169.88061523 C86.3723999 168.79184082 85.88859863 167.70306641 85.39013672 166.58129883 C84.86460205 165.38585449 84.33906738 164.19041016 83.79760742 162.95874023 C83.23027731 161.67932996 82.66230631 160.40020373 82.09375 159.12133789 C81.17440705 157.0532051 80.25548227 154.98489524 79.33830261 152.915802 C75.4408042 144.12375498 71.49443305 135.35372664 67.54760742 126.58374023 C67.1672937 125.73810516 66.78697998 124.89247009 66.3951416 124.02120972 C60.98866314 112.00150559 55.53720982 100.00318559 50.04760742 88.02124023 C40.54518628 67.26823368 40.54518628 67.26823368 35.89761353 56.96566772 C35.07838958 55.15189245 34.25485424 53.34006638 33.43115234 51.52832031 C30.71801925 45.4971197 28.31714446 39.52736494 26.36010742 33.20874023 C25.70010742 33.20874023 25.04010742 33.20874023 24.36010742 33.20874023 C24.36102921 33.95510962 24.36195101 34.70147902 24.36290073 35.47046566 C24.38495486 53.6049362 24.40151843 71.73940408 24.41191959 89.87388515 C24.4170828 98.64346739 24.42412596 107.41304069 24.43554688 116.18261719 C24.44549297 123.82336926 24.45196067 131.46411487 24.45419592 139.10487324 C24.45550315 143.15312409 24.45858981 147.20135643 24.46583748 151.24960136 C24.47259652 155.05554893 24.47472462 158.86147026 24.4732151 162.66742325 C24.47349148 164.06831695 24.4754973 165.46921149 24.4793129 166.87010002 C24.48424825 168.77463531 24.48250542 170.6791845 24.48036194 172.58372498 C24.48128373 173.65208304 24.48220552 174.72044111 24.48315525 175.82117367 C24.36010742 178.20874023 24.36010742 178.20874023 23.36010742 179.20874023 C21.29955432 179.30867555 19.23558152 179.33954929 17.17260742 179.34155273 C15.91706055 179.3428418 14.66151367 179.34413086 13.36791992 179.34545898 C12.71082031 179.34336426 12.0537207 179.34126953 11.37670898 179.33911133 C9.36849408 179.33376257 7.36050283 179.33905714 5.35229492 179.34545898 C4.09674805 179.34416992 2.84120117 179.34288086 1.54760742 179.34155273 C0.38616211 179.3404248 -0.7752832 179.33929688 -1.97192383 179.33813477 C-4.63989258 179.20874023 -4.63989258 179.20874023 -5.63989258 178.20874023 C-5.7391832 175.93280182 -5.76621707 173.65371348 -5.76687622 171.37561035 C-5.76843621 170.65267272 -5.7699962 169.9297351 -5.77160347 169.18489027 C-5.775616 166.74425227 -5.77242285 164.30367565 -5.76928711 161.86303711 C-5.77064104 160.12069156 -5.77242092 158.3783463 -5.77459717 156.63600159 C-5.7791725 151.89027015 -5.77738153 147.14456034 -5.77421808 142.39882851 C-5.771695 137.44382288 -5.77403187 132.48881917 -5.77560425 127.53381348 C-5.7774261 119.21109686 -5.77501924 110.8883891 -5.77026367 102.56567383 C-5.76482102 92.928914 -5.76658367 83.29217533 -5.77209008 73.65541601 C-5.77662078 65.39727265 -5.77727197 57.13913567 -5.77465141 48.88099146 C-5.7730884 43.9418519 -5.77289552 39.0027223 -5.7761879 34.06358337 C-5.77906599 29.4212488 -5.77709206 24.77894163 -5.77129364 20.13661003 C-5.76996571 18.42771894 -5.77036071 16.71882557 -5.7725563 15.00993538 C-5.77526652 12.68721529 -5.77188829 10.36458444 -5.76687622 8.04187012 C-5.7664992 6.73883186 -5.76612217 5.43579361 -5.76573372 4.09326935 C-5.56491263 -0.50994922 -4.17799151 0.07589871 0 0 Z " fill="#FEFEFE" transform="translate(238.639892578125,84.791259765625)"/>
<path d="M0 0 C0.75312469 -0.0049649 1.50624939 -0.00992981 2.28219604 -0.01504517 C4.79230655 -0.02972976 7.30235345 -0.03648619 9.8125 -0.04199219 C11.56396485 -0.04774725 13.3154297 -0.05350493 15.06689453 -0.05926514 C18.75586236 -0.06979887 22.4448083 -0.0756231 26.13378906 -0.07910156 C30.81464476 -0.08453109 35.49520133 -0.10842775 40.17596436 -0.13707352 C43.80530568 -0.15591223 47.43457881 -0.16091706 51.06396484 -0.16243744 C52.78598633 -0.16542706 54.50800772 -0.17332731 56.22998047 -0.18662262 C70.1978305 -0.28659025 85.71696419 -0.15871503 98.25 6.78613281 C98.90411865 7.13530762 99.5582373 7.48448242 100.23217773 7.84423828 C112.49789713 14.65129638 119.03836491 23.58339994 123.68359375 36.60253906 C126.93145075 48.76520356 125.19284095 63.11604252 119.1640625 74.16113281 C113.13639226 83.08069109 104.87159524 91.0460484 94.8125 95.16113281 C93.4925 95.16113281 92.1725 95.16113281 90.8125 95.16113281 C93.98051227 103.83812218 98.16584411 111.93233707 102.4375 120.09863281 C103.1592912 121.48663151 103.88072367 122.87481682 104.60180664 124.26318359 C106.66544539 128.23262521 108.73772856 132.19750135 110.8125 136.16113281 C111.33279785 137.15612793 111.8530957 138.15112305 112.38916016 139.17626953 C113.67388016 141.63073459 114.96114181 144.08383871 116.25 146.53613281 C116.63414063 147.26848145 117.01828125 148.00083008 117.4140625 148.75537109 C119.37687815 152.4845522 121.37494639 156.19006469 123.41796875 159.87597656 C123.84086182 160.64828613 124.26375488 161.4205957 124.69946289 162.21630859 C125.49662178 163.66977558 126.3036716 165.11788365 127.12280273 166.55908203 C129.32298288 170.59082576 130.35530888 173.56117548 129.8125 178.16113281 C127.13230603 180.84132678 119.55935976 179.47946734 115.7121582 179.51123047 C114.24259588 179.52777338 112.77311347 179.55504237 111.30395508 179.59326172 C109.1852852 179.6481063 107.0685034 179.66991376 104.94921875 179.68457031 C103.67780029 179.70438965 102.40638184 179.72420898 101.09643555 179.74462891 C97.8125 179.16113281 97.8125 179.16113281 95.57397461 177.02734375 C93.71375228 174.00045391 92.05597426 170.969372 90.4921875 167.77832031 C90.19211288 167.1711467 89.89203827 166.56397308 89.58287048 165.93840027 C88.94351277 164.64356052 88.30678988 163.34741691 87.67251587 162.05007935 C86.0042982 158.63927015 84.31550677 155.23866019 82.62890625 151.83691406 C82.13069618 150.83025948 82.13069618 150.83025948 81.62242126 149.80326843 C77.92307896 142.34079116 74.03313694 134.98411456 70.12060547 127.63183594 C67.45214653 122.59174552 64.82281813 117.53110523 62.1875 112.47363281 C60.41375 109.07050781 58.64 105.66738281 56.8125 102.16113281 C46.2525 101.83113281 35.6925 101.50113281 24.8125 101.16113281 C24.81773682 103.48845459 24.82297363 105.81577637 24.82836914 108.21362305 C24.84490542 115.88507095 24.85597138 123.55651963 24.86431217 131.22798061 C24.86954085 135.88124468 24.87663823 140.53449055 24.88793945 145.18774414 C24.89876886 149.67457827 24.90477695 154.16139486 24.90737724 158.64824104 C24.9092314 160.36393574 24.91285182 162.07962943 24.91823006 163.7953167 C24.92544121 166.18998194 24.92649091 168.58457377 24.92602539 170.97924805 C24.92962067 171.69565964 24.93321594 172.41207123 24.93692017 173.15019226 C24.92655216 178.04708065 24.92655216 178.04708065 23.8125 179.16113281 C21.53302208 179.26134211 19.25042865 179.29194584 16.96875 179.29394531 C15.94231384 179.2953804 15.94231384 179.2953804 14.8951416 179.29684448 C13.44588123 179.29752611 11.99661782 179.29567304 10.54736328 179.29150391 C8.32187072 179.28615533 6.09657999 179.29144941 3.87109375 179.29785156 C2.46614539 179.29719078 1.06119715 179.29590961 -0.34375 179.29394531 C-1.63087891 179.29281738 -2.91800781 179.29168945 -4.24414062 179.29052734 C-7.1875 179.16113281 -7.1875 179.16113281 -8.1875 178.16113281 C-8.28679062 175.88519439 -8.31382449 173.60610606 -8.31448364 171.32800293 C-8.31604363 170.6050653 -8.31760362 169.88212768 -8.31921089 169.13728285 C-8.32322343 166.69664485 -8.32003027 164.25606823 -8.31689453 161.81542969 C-8.31824846 160.07308414 -8.32002834 158.33073888 -8.32220459 156.58839417 C-8.32677993 151.84266273 -8.32498895 147.09695292 -8.3218255 142.35122108 C-8.31930242 137.39621546 -8.3216393 132.44121175 -8.32321167 127.48620605 C-8.32503352 119.16348944 -8.32262666 110.84078168 -8.31787109 102.51806641 C-8.31242845 92.88130658 -8.31419109 83.2445679 -8.3196975 73.60780859 C-8.3242282 65.34966522 -8.32487939 57.09152824 -8.32225883 48.83338404 C-8.32069582 43.89424448 -8.32050295 38.95511488 -8.32379532 34.01597595 C-8.32667341 29.37364138 -8.32469949 24.73133421 -8.31890106 20.08900261 C-8.31757313 18.38011152 -8.31796814 16.67121815 -8.32016373 14.96232796 C-8.32287394 12.63960786 -8.31949571 10.31697702 -8.31448364 7.9942627 C-8.31410662 6.69122444 -8.31372959 5.38818619 -8.31334114 4.04566193 C-8.07541314 -1.40812083 -4.48203529 0.00698048 0 0 Z M24.8125 28.16113281 C24.8125 43.34113281 24.8125 58.52113281 24.8125 74.16113281 C31.12375 74.22300781 37.435 74.28488281 43.9375 74.34863281 C45.8983252 74.37594482 47.85915039 74.40325684 49.87939453 74.43139648 C68.89932396 74.72934251 68.89932396 74.72934251 85.8125 67.16113281 C90.83059822 61.60302927 92.17103959 55.5368043 91.8125 48.16113281 C90.81256941 42.43795284 89.23654962 37.119493 84.8125 33.16113281 C78.76272535 29.8241089 72.95598896 28.02850612 66.0222168 28.04760742 C65.08889526 28.04772827 64.15557373 28.04784912 63.19396973 28.04797363 C62.2263269 28.0530896 61.25868408 28.05820557 60.26171875 28.06347656 C59.36247681 28.06448364 58.46323486 28.06549072 57.53674316 28.06652832 C54.19114906 28.0717437 50.84557319 28.08570494 47.5 28.09863281 C36.2696875 28.12957031 36.2696875 28.12957031 24.8125 28.16113281 Z " fill="#FEFEFE" transform="translate(1147.1875,84.8388671875)"/>
<path d="M0 0 C0.66209473 -0.00095673 1.32418945 -0.00191345 2.00634766 -0.00289917 C3.40852961 -0.00358076 4.8107147 -0.00172792 6.21289062 0.00244141 C8.36595713 0.00779004 10.51881502 0.0024958 12.671875 -0.00390625 C14.03125046 -0.00324546 15.3906258 -0.00196429 16.75 0 C18.61785156 0.00169189 18.61785156 0.00169189 20.5234375 0.00341797 C23.375 0.1328125 23.375 0.1328125 24.375 1.1328125 C24.46932985 3.34149081 24.49242431 5.55322771 24.48852539 7.76391602 C24.48867142 8.45656555 24.48881744 9.14921509 24.4889679 9.862854 C24.48826874 12.16250696 24.48047628 14.46207987 24.47265625 16.76171875 C24.47079208 18.35212662 24.46936817 19.94253507 24.46836853 21.53294373 C24.46454329 25.7267718 24.45471295 29.92056545 24.44366455 34.11437988 C24.43345057 38.39070164 24.42887094 42.66702894 24.42382812 46.94335938 C24.41309069 55.33985958 24.39601419 63.73633176 24.375 72.1328125 C29.65891706 71.88917471 29.65891706 71.88917471 34.30200195 69.77270508 C34.73472412 69.19673584 35.16744629 68.6207666 35.61328125 68.02734375 C36.11730469 67.38087891 36.62132812 66.73441406 37.140625 66.06835938 C37.90632813 65.01745117 37.90632813 65.01745117 38.6875 63.9453125 C39.24308594 63.22279297 39.79867188 62.50027344 40.37109375 61.75585938 C41.51124512 60.27079919 42.6423171 58.77872379 43.76416016 57.27978516 C46.08271037 54.18955621 48.47999258 51.16384944 50.875 48.1328125 C51.77085182 46.98699362 52.66668492 45.8411601 53.5625 44.6953125 C57.15950242 40.11730942 60.84905772 35.61504001 64.53027344 31.10473633 C68.93966568 25.69267295 73.26060676 20.21695995 77.546875 14.70703125 C77.98580078 14.17416504 78.42472656 13.64129883 78.87695312 13.09228516 C80.49743949 11.04341383 80.49743949 11.04341383 82.10742188 8.29443359 C85.28226595 3.55885326 87.47616548 0.58141277 93.17480469 -0.76489258 C97.5906007 -1.11888375 101.96067067 -0.87846884 106.375 -0.6171875 C107.91522071 -0.57050432 109.45560065 -0.52879587 110.99609375 -0.4921875 C122.07751319 -0.16467431 122.07751319 -0.16467431 123.375 1.1328125 C123.94582195 5.19991889 123.61370566 6.78704034 121.25 10.2109375 C120.30576942 11.28084266 119.34656095 12.33766286 118.375 13.3828125 C117.35566017 14.5302643 116.33743883 15.67871064 115.3203125 16.828125 C114.81661133 17.38918945 114.31291016 17.95025391 113.79394531 18.52832031 C111.86519326 20.70928358 110.05334681 22.97259974 108.25 25.2578125 C104.01522069 30.59656687 99.69728071 35.86480199 95.375 41.1328125 C93.87471683 42.96591412 92.37471592 44.79924677 90.875 46.6328125 C90.12605469 47.54804688 89.37710937 48.46328125 88.60546875 49.40625 C87.17000065 51.16099034 85.73506204 52.91616405 84.30078125 54.671875 C80.80975195 58.94370753 77.31289557 63.21033128 73.80078125 67.46484375 C73.17389404 68.22458496 72.54700684 68.98432617 71.90112305 69.76708984 C70.65467074 71.27717474 69.40746402 72.78663733 68.15942383 74.29541016 C67.58345459 74.99327637 67.00748535 75.69114258 66.4140625 76.41015625 C65.90053223 77.03140381 65.38700195 77.65265137 64.85791016 78.29272461 C64.3685498 78.89995361 63.87918945 79.50718262 63.375 80.1328125 C62.8171582 80.82052734 62.25931641 81.50824219 61.68457031 82.21679688 C60.15000169 84.07334904 60.15000169 84.07334904 60.3828125 86.51171875 C61.68976061 89.96432576 63.81086058 92.37232563 66.25 95.0703125 C67.2600364 96.22331605 68.26778077 97.37833074 69.2734375 98.53515625 C69.7900293 99.12796387 70.30662109 99.72077148 70.83886719 100.33154297 C73.2785645 103.19233235 75.57546469 106.15906788 77.875 109.1328125 C81.94818254 114.37662552 86.15621489 119.47910067 90.4675293 124.52832031 C93.75865925 128.38725092 96.94472926 132.3140691 100.09375 136.2890625 C102.4900093 139.27618025 104.92390884 142.22943643 107.36499023 145.17993164 C112.50502919 151.39273426 117.61978784 157.62311709 122.625 163.9453125 C123.0785083 164.5134668 123.5320166 165.08162109 123.99926758 165.66699219 C126.11594648 168.3586471 128.1224898 170.92638639 129.375 174.1328125 C128.875 177.6328125 128.875 177.6328125 127.375 179.1328125 C99.12110709 182.46005106 99.12110709 182.46005106 89.60693359 177.76757812 C85.46796089 174.32213173 82.93272523 170.00080941 80.50341797 165.24853516 C78.80151951 162.05756761 76.64562067 159.4489489 74.375 156.6328125 C73.18197266 155.06853516 73.18197266 155.06853516 71.96484375 153.47265625 C68.49320346 148.95993055 64.87476397 144.56639405 61.27270508 140.15771484 C57.19043392 135.15496107 53.17694204 130.1030982 49.20092773 125.015625 C45.86750775 120.75081731 42.49057365 116.52382998 39.0703125 112.328125 C37.50928071 110.30669673 36.20514346 108.24611008 34.875 106.0703125 C32.19942451 102.9265113 32.00449438 102.76085015 28.21875 102.44921875 C26.9503125 102.34480469 25.681875 102.24039063 24.375 102.1328125 C24.37722061 103.08272568 24.37944122 104.03263885 24.38172913 105.01133728 C24.40196127 113.94372346 24.41697249 122.87610502 24.42681217 131.80850887 C24.43204082 136.4012389 24.43913812 140.9939505 24.45043945 145.58666992 C24.461269 150.01514938 24.46727698 154.44361106 24.46987724 158.87210274 C24.47173137 160.56546878 24.47535175 162.25883379 24.48073006 163.95219231 C24.4879414 166.31572482 24.4889909 168.67918295 24.48852539 171.04272461 C24.49212067 171.74978546 24.49571594 172.45684631 24.49942017 173.18533325 C24.48905216 178.01876034 24.48905216 178.01876034 23.375 179.1328125 C21.16849344 179.23293651 18.95877614 179.2636243 16.75 179.265625 C16.08790527 179.26658173 15.42581055 179.26753845 14.74365234 179.26852417 C13.34147039 179.26920576 11.9392853 179.26735292 10.53710938 179.26318359 C8.38404287 179.25783496 6.23118498 179.2631292 4.078125 179.26953125 C2.71874954 179.26887046 1.3593742 179.26758929 0 179.265625 C-1.24523437 179.26449707 -2.49046875 179.26336914 -3.7734375 179.26220703 C-6.625 179.1328125 -6.625 179.1328125 -7.625 178.1328125 C-7.72429062 175.85687408 -7.75132449 173.57778575 -7.75198364 171.29968262 C-7.75354363 170.57674499 -7.75510362 169.85380736 -7.75671089 169.10896254 C-7.76072343 166.66832454 -7.75753027 164.22774792 -7.75439453 161.78710938 C-7.75574846 160.04476383 -7.75752834 158.30241857 -7.75970459 156.56007385 C-7.76427993 151.81434241 -7.76248895 147.06863261 -7.7593255 142.32290077 C-7.75680242 137.36789515 -7.7591393 132.41289144 -7.76071167 127.45788574 C-7.76253352 119.13516913 -7.76012666 110.81246137 -7.75537109 102.48974609 C-7.74992845 92.85298627 -7.75169109 83.21624759 -7.7571975 73.57948828 C-7.7617282 65.32134491 -7.76237939 57.06320793 -7.75975883 48.80506372 C-7.75819582 43.86592417 -7.75800295 38.92679457 -7.76129532 33.98765564 C-7.76417341 29.34532107 -7.76219949 24.70301389 -7.75640106 20.0606823 C-7.75507313 18.35179121 -7.75546814 16.64289784 -7.75766373 14.93400764 C-7.76037394 12.61128755 -7.75699571 10.2886567 -7.75198364 7.96594238 C-7.75160662 6.66290413 -7.75122959 5.35986588 -7.75084114 4.01734161 C-7.51858011 -1.30654296 -4.70852235 0.00426497 0 0 Z " fill="#FEFEFE" transform="translate(1002.625,84.8671875)"/>
<path d="M0 0 C2.47907823 2.16824579 4.77632007 4.41998357 7.0546875 6.796875 C7.75980469 7.47105469 8.46492187 8.14523438 9.19140625 8.83984375 C19.90780382 19.71953881 25.60055314 36.6318155 26.21484375 51.734375 C26.0546875 54.796875 26.0546875 54.796875 25.0546875 55.796875 C22.76317333 55.88478475 20.46896226 55.90381538 18.17578125 55.89453125 C17.14578758 55.89240883 17.14578758 55.89240883 16.09498596 55.89024353 C13.89400949 55.88462979 11.69313341 55.87207507 9.4921875 55.859375 C8.00325667 55.85436176 6.51432426 55.84979855 5.02539062 55.84570312 C1.36845675 55.83465593 -2.28841808 55.81738213 -5.9453125 55.796875 C-6.91626717 52.40930535 -7.88418694 49.02276174 -8.8046875 45.62109375 C-12.05321066 34.18002315 -16.3251006 24.93082227 -26.9453125 18.796875 C-38.48330181 13.56248981 -50.71260305 12.4531574 -62.9453125 15.796875 C-75.08287787 20.41574823 -81.50458264 27.67537583 -87.1015625 39.171875 C-91.70899595 49.78293386 -93.42687242 61.31018696 -93.9453125 72.796875 C-93.9865625 73.55613281 -94.0278125 74.31539063 -94.0703125 75.09765625 C-94.60188517 94.3339422 -91.71419977 116.40944478 -78.3203125 131.109375 C-68.14596511 140.65519128 -56.97303907 142.2781055 -43.73046875 142.07421875 C-37.88966545 141.84523465 -33.11356073 140.53553145 -27.9453125 137.796875 C-27.14867187 137.39597656 -26.35203125 136.99507812 -25.53125 136.58203125 C-16.56044847 131.40656883 -12.41969781 123.18724408 -9.6328125 113.484375 C-9.20548828 111.78861328 -9.20548828 111.78861328 -8.76953125 110.05859375 C-7.9730076 106.90647409 -6.98919255 103.87423875 -5.9453125 100.796875 C-1.54875077 100.77221996 2.8477747 100.75403658 7.24438477 100.74194336 C8.74113668 100.73690379 10.23788366 100.73007213 11.73461914 100.72143555 C13.88168557 100.70935341 16.02868712 100.70364309 18.17578125 100.69921875 C20.11602173 100.69136353 20.11602173 100.69136353 22.09545898 100.68334961 C25.0546875 100.796875 25.0546875 100.796875 26.0546875 101.796875 C26.42842484 107.51505631 25.41234798 112.47774626 23.9296875 117.984375 C23.70450439 118.82154053 23.47932129 119.65870605 23.24731445 120.52124023 C18.56517093 137.17760066 8.58197505 152.02454368 -6.5078125 160.99609375 C-26.08391448 171.86757859 -49.83649932 174.02332029 -71.53125 168.828125 C-82.84419925 165.41094124 -91.92046769 160.41665415 -100.9453125 152.796875 C-101.60015625 152.25546875 -102.255 151.7140625 -102.9296875 151.15625 C-120.4279744 135.26331052 -126.89327844 109.03932015 -128.07080078 86.38232422 C-129.11798041 59.15039161 -125.08756337 29.508934 -105.9453125 8.734375 C-79.01189664 -19.27221789 -31.42760826 -23.50818443 0 0 Z " fill="#FEFEFE" transform="translate(960.9453125,96.203125)"/>
<path d="M0 0 C1.48919952 -0.00422974 1.48919952 -0.00422974 3.00848389 -0.00854492 C4.10670471 -0.00652069 5.20492554 -0.00449646 6.33642578 -0.00241089 C8.06061737 -0.00503937 8.06061737 -0.00503937 9.81964111 -0.00772095 C13.64035528 -0.01214226 17.4610236 -0.00920048 21.28173828 -0.00582886 C23.9235027 -0.00650182 26.56526705 -0.00747177 29.20703125 -0.00872803 C34.75212099 -0.01054957 40.29719743 -0.00814383 45.84228516 -0.00338745 C52.26168572 0.00205514 58.68105453 0.00029247 65.10045433 -0.00521386 C71.26474811 -0.01029062 77.42902776 -0.00976347 83.59332275 -0.00683212 C86.22170008 -0.00616257 88.8500782 -0.00699224 91.47845459 -0.00931168 C95.14467551 -0.01183655 98.8108345 -0.00799993 102.47705078 -0.00241089 C103.57527161 -0.00443512 104.67349243 -0.00645935 105.80499268 -0.00854492 C106.79779236 -0.0057251 107.79059204 -0.00290527 108.81347656 0 C109.68142853 0.00037703 110.54938049 0.00075405 111.44363403 0.0011425 C113.40673828 0.12698364 113.40673828 0.12698364 114.40673828 1.12698364 C114.50645614 3.04156646 114.53754417 4.95980681 114.53955078 6.87698364 C114.54083984 8.04229614 114.54212891 9.20760864 114.54345703 10.40823364 C114.53958984 11.63542114 114.53572266 12.86260864 114.53173828 14.12698364 C114.53560547 15.35417114 114.53947266 16.58135864 114.54345703 17.84573364 C114.54216797 19.01104614 114.54087891 20.17635864 114.53955078 21.37698364 C114.53842285 22.45463989 114.53729492 23.53229614 114.53613281 24.64260864 C114.40673828 27.12698364 114.40673828 27.12698364 113.40673828 28.12698364 C110.72885855 28.22211308 108.07684959 28.25253643 105.39868164 28.24050903 C104.55972855 28.24065506 103.72077545 28.24080109 102.85639954 28.24095154 C100.06976784 28.24025214 97.28320212 28.2324585 94.49658203 28.22463989 C92.56987037 28.22277581 90.64315823 28.22135186 88.71644592 28.22035217 C83.63486431 28.21652623 78.55331109 28.2066953 73.47174072 28.19564819 C67.38030331 28.1836415 61.28885643 28.1790322 55.19741058 28.17319489 C45.93383338 28.16348358 36.67031852 28.14432756 27.40673828 28.12698364 C27.40673828 41.98698364 27.40673828 55.84698364 27.40673828 70.12698364 C32.30388672 70.11538208 37.20103516 70.10378052 42.24658203 70.09182739 C45.34098439 70.08672049 48.43538158 70.08190671 51.52978516 70.07815552 C56.44605584 70.07216763 61.36230798 70.0650688 66.27856445 70.05154419 C70.24020657 70.04071339 74.2018288 70.0347064 78.16348457 70.0321064 C79.67822139 70.0302525 81.19295707 70.02663255 82.70768547 70.02125359 C84.82215641 70.01404057 86.93654422 70.01299281 89.05102539 70.01345825 C90.25681747 70.01123764 91.46260956 70.00901703 92.7049408 70.00672913 C95.40673828 70.12698364 95.40673828 70.12698364 96.40673828 71.12698364 C96.50645614 73.04156646 96.53754417 74.95980681 96.53955078 76.87698364 C96.54083984 78.04229614 96.54212891 79.20760864 96.54345703 80.40823364 C96.53958984 81.63542114 96.53572266 82.86260864 96.53173828 84.12698364 C96.53560547 85.35417114 96.53947266 86.58135864 96.54345703 87.84573364 C96.54216797 89.01104614 96.54087891 90.17635864 96.53955078 91.37698364 C96.53842285 92.45463989 96.53729492 93.53229614 96.53613281 94.64260864 C96.40673828 97.12698364 96.40673828 97.12698364 95.40673828 98.12698364 C93.28992511 98.22120105 91.1699307 98.24441125 89.05102539 98.24050903 C88.38763657 98.24065506 87.72424774 98.24080109 87.04075623 98.24095154 C84.83849873 98.24025245 82.63632483 98.23246029 80.43408203 98.22463989 C78.91093492 98.2227757 77.38778721 98.2213518 75.86463928 98.22035217 C71.84836177 98.2165271 67.83212021 98.20669692 63.81585693 98.19564819 C59.72050462 98.18543383 55.62514652 98.1808545 51.52978516 98.17581177 C43.488753 98.16507464 35.44775011 98.14799836 27.40673828 98.12698364 C27.40895889 99.12700912 27.4111795 100.12703461 27.41346741 101.15736389 C27.43369896 110.56066704 27.44871049 119.96396579 27.45855045 129.36728573 C27.46377925 134.20215191 27.47087682 139.03700059 27.48217773 143.87185669 C27.49300675 148.53375484 27.49901514 153.1956361 27.50161552 157.85754585 C27.50346975 159.64022653 27.50709031 161.42290623 27.51246834 163.20557976 C27.51967897 165.69364325 27.52072922 168.18163607 27.52026367 170.66970825 C27.52385895 171.41417206 27.52745422 172.15863586 27.53115845 172.92565918 C27.52079044 178.01293148 27.52079044 178.01293148 26.40673828 179.12698364 C24.12726037 179.22719294 21.84466693 179.25779667 19.56298828 179.25979614 C18.53655212 179.26123123 18.53655212 179.26123123 17.48937988 179.26269531 C16.04011951 179.26337694 14.5908561 179.26152387 13.14160156 179.25735474 C10.916109 179.25200616 8.69081827 179.25730024 6.46533203 179.26370239 C5.06038367 179.26304161 3.65543543 179.26176044 2.25048828 179.25979614 C0.96335937 179.25866821 -0.32376953 179.25754028 -1.64990234 179.25637817 C-4.59326172 179.12698364 -4.59326172 179.12698364 -5.59326172 178.12698364 C-5.69255234 175.85104522 -5.71958621 173.57195689 -5.72024536 171.29385376 C-5.72180535 170.57091613 -5.72336534 169.84797851 -5.72497261 169.10313368 C-5.72898515 166.66249568 -5.72579199 164.22191906 -5.72265625 161.78128052 C-5.72401018 160.03893497 -5.72579006 158.29658971 -5.72796631 156.554245 C-5.73254164 151.80851356 -5.73075067 147.06280375 -5.72758722 142.31707191 C-5.72506414 137.36206629 -5.72740102 132.40706258 -5.72897339 127.45205688 C-5.73079524 119.12934027 -5.72838838 110.80663251 -5.72363281 102.48391724 C-5.71819016 92.84715741 -5.71995281 83.21041873 -5.72545922 73.57365942 C-5.72998992 65.31551605 -5.73064111 57.05737907 -5.72802055 48.79923487 C-5.72645754 43.86009531 -5.72626466 38.92096571 -5.72955704 33.98182678 C-5.73243513 29.33949221 -5.7304612 24.69718504 -5.72466278 20.05485344 C-5.72333485 18.34596235 -5.72372986 16.63706898 -5.72592545 14.92817879 C-5.72863566 12.60545869 -5.72525743 10.28282785 -5.72024536 7.96011353 C-5.71986834 6.65707527 -5.71949131 5.35403702 -5.71910286 4.01151276 C-5.51846803 -0.58743646 -4.16603152 0.00180966 0 0 Z " fill="#FEFEFE" transform="translate(50.59326171875,84.87301635742188)"/>
<path d="M0 0 C1.82997276 -0.00422974 1.82997276 -0.00422974 3.69691467 -0.00854492 C5.06124893 -0.00660033 6.42558303 -0.00455214 7.78991699 -0.00241089 C9.21699569 -0.00376489 10.64407405 -0.00554482 12.07115173 -0.00772095 C15.95740802 -0.01229538 19.84363787 -0.01050568 23.72989464 -0.00734186 C27.78802947 -0.00481831 31.84616196 -0.00715578 35.90429688 -0.00872803 C42.72050383 -0.01054974 49.53669996 -0.00814338 56.35290527 -0.00338745 C64.24465632 0.00205517 72.13638154 0.00029252 80.02813196 -0.00521386 C86.79159597 -0.00974495 93.55505218 -0.01039556 100.31851721 -0.00777519 C104.36339587 -0.00621239 108.40826237 -0.00601872 112.45314026 -0.00931168 C116.25500262 -0.01219033 120.05683153 -0.01021481 123.85869026 -0.00441742 C125.25797024 -0.00308979 126.65725302 -0.00348399 128.05653191 -0.00568008 C129.95882953 -0.00839144 131.86113326 -0.0043969 133.76342773 0 C134.83048698 0.00037703 135.89754623 0.00075405 136.99694061 0.0011425 C139.38171387 0.12698364 139.38171387 0.12698364 140.38171387 1.12698364 C140.48143172 3.04156646 140.51251975 4.95980681 140.51452637 6.87698364 C140.51581543 8.04229614 140.51710449 9.20760864 140.51843262 10.40823364 C140.51456543 11.63542114 140.51069824 12.86260864 140.50671387 14.12698364 C140.51058105 15.35417114 140.51444824 16.58135864 140.51843262 17.84573364 C140.51649902 19.59370239 140.51649902 19.59370239 140.51452637 21.37698364 C140.51339844 22.45463989 140.51227051 23.53229614 140.5111084 24.64260864 C140.38171387 27.12698364 140.38171387 27.12698364 139.38171387 28.12698364 C137.63242667 28.22063371 135.87935133 28.24442802 134.12756348 28.24050903 C133.0064769 28.2404335 131.88539032 28.24035797 130.73033142 28.24028015 C128.90067589 28.23253822 128.90067589 28.23253822 127.03405762 28.22463989 C125.79249405 28.22322495 124.55093048 28.22181 123.27174377 28.22035217 C119.96565896 28.21568955 116.6596424 28.20669861 113.35357666 28.19564819 C109.98210237 28.18543191 106.61062104 28.18085409 103.23913574 28.17581177 C96.61997612 28.1647576 90.00084894 28.14800101 83.38171387 28.12698364 C83.38263566 28.89912169 83.38355745 29.67125975 83.38450718 30.46679592 C83.40656107 49.22715665 83.42312476 67.9875148 83.43352604 86.7478857 C83.4386893 95.82013857 83.44573256 104.8923828 83.45715332 113.96463013 C83.46709925 121.86907076 83.47356708 129.77350515 83.47580236 137.67795187 C83.47710962 141.86593084 83.48019645 146.05389191 83.48744392 150.24186516 C83.49420271 154.17913662 83.49633112 158.11638273 83.49482155 162.05365944 C83.49509794 163.50292981 83.49710391 164.95220099 83.50091934 166.40146637 C83.5058543 168.37168778 83.50411196 170.34192262 83.50196838 172.31214905 C83.50289018 173.41737884 83.50381197 174.52260862 83.5047617 175.66133022 C83.38171387 178.12698364 83.38171387 178.12698364 82.38171387 179.12698364 C80.10223595 179.22719294 77.81964252 179.25779667 75.53796387 179.25979614 C74.51152771 179.26123123 74.51152771 179.26123123 73.46435547 179.26269531 C72.0150951 179.26337694 70.56583169 179.26152387 69.11657715 179.25735474 C66.89108459 179.25200616 64.66579386 179.25730024 62.44030762 179.26370239 C61.03535925 179.26304161 59.63041101 179.26176044 58.22546387 179.25979614 C56.93833496 179.25866821 55.65120605 179.25754028 54.32507324 179.25637817 C51.38171387 179.12698364 51.38171387 179.12698364 50.38171387 178.12698364 C50.28508414 176.19070064 50.25984243 174.25084102 50.26145935 172.31214905 C50.26008469 171.04865128 50.25871002 169.7851535 50.2572937 168.48336792 C50.26083331 167.07022071 50.26446813 165.65707374 50.26818848 164.243927 C50.26847034 162.7659658 50.26831263 161.28800446 50.26774597 159.81004333 C50.26745797 155.78542536 50.27335516 151.76083693 50.28031993 147.73622584 C50.28655298 143.53482 50.28715723 139.33341354 50.28834534 135.13200378 C50.2914588 127.17052107 50.29967238 119.20905203 50.30969483 111.24757534 C50.32085551 102.18605775 50.3263663 93.12453952 50.33139026 84.06301677 C50.34185498 65.41766464 50.35945471 46.77232524 50.38171387 28.12698364 C49.68236221 28.12920425 48.98301056 28.13142487 48.26246643 28.13371277 C41.68466466 28.15371644 35.10687133 28.16895816 28.52904606 28.17879581 C25.14699574 28.18402339 21.76497047 28.19111875 18.38293457 28.2024231 C14.49841609 28.21532631 10.6139079 28.22021288 6.72937012 28.22463989 C5.50959976 28.22980118 4.28982941 28.23496246 3.03309631 28.24028015 C1.35146645 28.24039345 1.35146645 28.24039345 -0.36413574 28.24050903 C-1.35674911 28.24272964 -2.34936249 28.24495026 -3.37205505 28.24723816 C-5.61828613 28.12698364 -5.61828613 28.12698364 -6.61828613 27.12698364 C-6.71800399 25.21240082 -6.74909202 23.29416047 -6.75109863 21.37698364 C-6.7523877 20.21167114 -6.75367676 19.04635864 -6.75500488 17.84573364 C-6.7511377 16.61854614 -6.74727051 15.39135864 -6.74328613 14.12698364 C-6.74715332 12.89979614 -6.75102051 11.67260864 -6.75500488 10.40823364 C-6.75371582 9.24292114 -6.75242676 8.07760864 -6.75109863 6.87698364 C-6.7499707 5.79932739 -6.74884277 4.72167114 -6.74768066 3.61135864 C-6.50675877 -1.01434168 -4.07144114 0.00143857 0 0 Z " fill="#FEFEFE" transform="translate(399.6182861328125,84.87301635742188)"/>
<path d="M0 0 C0.68429077 -0.00095673 1.36858154 -0.00191345 2.0736084 -0.00289917 C3.52286877 -0.0035808 4.97213218 -0.00172773 6.42138672 0.00244141 C8.64687928 0.00778998 10.87217001 0.0024959 13.09765625 -0.00390625 C14.50260461 -0.00324547 15.90755285 -0.0019643 17.3125 0 C18.59962891 0.00112793 19.88675781 0.00225586 21.21289062 0.00341797 C24.15625 0.1328125 24.15625 0.1328125 25.15625 1.1328125 C25.25554062 3.40875092 25.28257449 5.68783925 25.28323364 7.96594238 C25.28479363 8.68888001 25.28635362 9.41181764 25.28796089 10.15666246 C25.29197343 12.59730046 25.28878027 15.03787708 25.28564453 17.47851562 C25.28699846 19.22086117 25.28877834 20.96320643 25.29095459 22.70555115 C25.29552993 27.45128259 25.29373895 32.19699239 25.2905755 36.94272423 C25.28805242 41.89772985 25.2903893 46.85273356 25.29196167 51.80773926 C25.29378352 60.13045587 25.29137666 68.45316363 25.28662109 76.77587891 C25.28117845 86.41263873 25.28294109 96.04937741 25.2884475 105.68613672 C25.2929782 113.94428009 25.29362939 122.20241707 25.29100883 130.46056128 C25.28944582 135.39970083 25.28925295 140.33883043 25.29254532 145.27796936 C25.29542341 149.92030393 25.29344949 154.56261111 25.28765106 159.2049427 C25.28632313 160.91383379 25.28671814 162.62272716 25.28891373 164.33161736 C25.29162394 166.65433745 25.28824571 168.9769683 25.28323364 171.29968262 C25.28285662 172.60272087 25.28247959 173.90575912 25.28209114 175.24828339 C25.15625 178.1328125 25.15625 178.1328125 24.15625 179.1328125 C21.87677208 179.2330218 19.59417865 179.26362553 17.3125 179.265625 C16.28606384 179.26706009 16.28606384 179.26706009 15.2388916 179.26852417 C13.78963123 179.2692058 12.34036782 179.26735273 10.89111328 179.26318359 C8.66562072 179.25783502 6.44032999 179.2631291 4.21484375 179.26953125 C2.80989539 179.26887047 1.40494715 179.2675893 0 179.265625 C-1.28712891 179.26449707 -2.57425781 179.26336914 -3.90039062 179.26220703 C-6.84375 179.1328125 -6.84375 179.1328125 -7.84375 178.1328125 C-7.94304062 175.85687408 -7.97007449 173.57778575 -7.97073364 171.29968262 C-7.97229363 170.57674499 -7.97385362 169.85380736 -7.97546089 169.10896254 C-7.97947343 166.66832454 -7.97628027 164.22774792 -7.97314453 161.78710938 C-7.97449846 160.04476383 -7.97627834 158.30241857 -7.97845459 156.56007385 C-7.98302993 151.81434241 -7.98123895 147.06863261 -7.9780755 142.32290077 C-7.97555242 137.36789515 -7.9778893 132.41289144 -7.97946167 127.45788574 C-7.98128352 119.13516913 -7.97887666 110.81246137 -7.97412109 102.48974609 C-7.96867845 92.85298627 -7.97044109 83.21624759 -7.9759475 73.57948828 C-7.9804782 65.32134491 -7.98112939 57.06320793 -7.97850883 48.80506372 C-7.97694582 43.86592417 -7.97675295 38.92679457 -7.98004532 33.98765564 C-7.98292341 29.34532107 -7.98094949 24.70301389 -7.97515106 20.0606823 C-7.97382313 18.35179121 -7.97421814 16.64289784 -7.97641373 14.93400764 C-7.97912394 12.61128755 -7.97574571 10.2886567 -7.97073364 7.96594238 C-7.97035662 6.66290413 -7.96997959 5.35986588 -7.96959114 4.01734161 C-7.73432929 -1.37532764 -4.75176064 0.00416404 0 0 Z " fill="#FEFEFE" transform="translate(182.84375,84.8671875)"/>
</svg>
